<svg width="0" height="0" class="hidden">
  <symbol version="1.1" xmlns="http://www.w3.org/2000/svg" viewBox="0 0 512 512" id="confetti">
    <path d="M0 0 C0.72960937 -0.02835938 1.45921875 -0.05671875 2.2109375 -0.0859375 C7.66671609 0.95578074 11.75118348 5.25120215 15.55078125 9.0703125 C16.42927734 9.95074219 17.30777344 10.83117187 18.21289062 11.73828125 C19.11201172 12.64964844 20.01113281 13.56101563 20.9375 14.5 C21.85595703 15.41910156 22.77441406 16.33820313 23.72070312 17.28515625 C31.57463096 25.19132751 31.57463096 25.19132751 31.75 29.3125 C31.625 32.375 31.625 32.375 30.625 35.375 C33.71443668 39.04491539 36.80417076 42.45727585 40.625 45.375 C43.15542986 45.58207282 44.91318509 45.15117879 47.34936523 44.50976562 C49.625 44.375 49.625 44.375 51.45068359 45.48974609 C52.05219238 46.05773926 52.65370117 46.62573242 53.2734375 47.2109375 C53.9648584 47.85667725 54.6562793 48.50241699 55.36865234 49.16772461 C56.48554443 50.26032593 56.48554443 50.26032593 57.625 51.375 C58.42502441 52.15431885 59.22504883 52.9336377 60.04931641 53.73657227 C62.59258808 56.24451386 65.11191859 58.77432638 67.625 61.3125 C68.49511719 62.18712891 69.36523438 63.06175781 70.26171875 63.96289062 C72.38513549 66.09797449 74.50616378 68.23537205 76.625 70.375 C78.60928655 69.39109028 80.57270263 68.40463518 82.5 67.3125 C89.1942129 64.35917078 97.07895095 65.15416725 104.25512695 65.13476562 C106.42112843 65.12507326 108.58617414 65.09400582 110.75195312 65.0625 C119.44580865 64.99567425 127.3921655 65.06234691 134.5 70.625 C139.06017493 76.52640285 140.08202279 81.65877327 140.0234375 88.90625 C140.02630768 89.70099731 140.02917786 90.49574463 140.03213501 91.3145752 C140.03416525 92.98527748 140.0287086 94.65600411 140.01611328 96.32666016 C140.00004389 98.8680593 140.01599664 101.40786842 140.03515625 103.94921875 C140.03317363 105.58073264 140.02932957 107.21224555 140.0234375 108.84375 C140.02951019 109.59499146 140.03558289 110.34623291 140.0418396 111.12023926 C139.9535883 117.81756363 137.59517873 122.43806683 134.625 128.375 C135.14368338 128.89183979 135.66236675 129.40867958 136.19676781 129.94118118 C148.8128023 142.51306128 161.42330752 155.09046293 174.02766991 167.67404556 C180.1231577 173.75921752 186.22050779 179.84250137 192.32226562 185.92138672 C197.64008788 191.21928455 202.95439401 196.52067981 208.26449454 201.82631755 C211.07668266 204.63589669 213.89060888 207.44368423 216.70875168 210.24729156 C219.36091595 212.88588693 222.00835548 215.52913146 224.65223885 218.17602348 C225.6236281 219.14686227 226.59673415 220.11598678 227.57167244 221.08326149 C228.90244442 222.40408353 230.22646999 223.73169249 231.55014038 225.05963135 C232.29310553 225.80075291 233.03607067 226.54187447 233.80154991 227.30545425 C237.42119465 231.41361188 238.08789958 234.77606405 237.9296875 240.12890625 C237.43245962 243.7943682 236.12611555 245.68630079 233.625 248.375 C227.18544161 251.95397158 220.43541179 254.38458893 213.50390625 256.83984375 C211.68285682 257.49234358 209.86180913 258.14484829 208.0408287 258.79754066 C206.1000658 259.49220796 204.15847807 260.18452242 202.21664429 260.87619019 C196.00386469 263.08960821 189.79673416 265.3187838 183.58961678 267.54802132 C182.1653619 268.05951805 180.74104887 268.57085291 179.316679 269.08202934 C164.94972693 274.23897161 150.62708545 279.51189786 136.3125 284.8125 C115.95713028 292.34459457 95.55727119 299.7423705 75.125 307.0625 C55.32077154 314.15780101 35.53929326 321.30794014 15.80175781 328.58734131 C-0.73406895 334.68530374 -17.2984915 340.70105937 -33.875 346.6875 C-56.88165076 354.99660335 -79.84752543 363.41162856 -102.79296875 371.88793945 C-103.95385513 372.3167189 -105.11474152 372.74549835 -106.31080627 373.18727112 C-108.48250656 373.98965314 -110.654016 374.79255197 -112.82530212 375.59605408 C-113.78134842 375.94946365 -114.73739471 376.30287323 -115.72241211 376.66699219 C-116.55340927 376.97449402 -117.38440643 377.28199585 -118.24058533 377.59881592 C-123.7115464 379.58834164 -128.57234976 380.13654611 -134.375 379.375 C-137.55239189 377.72791871 -139.75281742 375.61936516 -141.375 372.375 C-142.38246645 363.65733235 -140.17543336 356.61861549 -137.08203125 348.55859375 C-136.38665515 346.67972074 -135.69128067 344.80084713 -134.99596882 342.92195034 C-134.25323228 340.92552114 -133.50175785 338.93259282 -132.74749756 336.94049072 C-131.15781603 332.74145009 -129.59276577 328.53349354 -128.03173828 324.32373047 C-126.41409945 319.96440437 -124.79508721 315.60562332 -123.16766357 311.24993896 C-118.36235198 298.38657973 -113.68260279 285.48047764 -109.03213501 272.56027222 C-101.35565626 251.2439882 -93.55431515 229.97547356 -85.69671631 208.72540283 C-78.64614358 189.64732438 -71.73224735 170.52311447 -64.875 151.375 C-56.74066359 128.66132059 -48.49653402 105.99232732 -40.11547852 83.36816406 C-35.84747031 71.84017543 -31.61329138 60.30174963 -27.46197701 48.73127937 C-26.76402785 46.78684675 -26.06485124 44.84286024 -25.36521912 42.89903259 C-25.13765458 42.26668607 -24.91009005 41.63433954 -24.67562962 40.982831 C-24.44969089 40.35500312 -24.22375216 39.72717524 -23.9909668 39.08032227 C-22.23984728 34.2133545 -20.50109137 29.34220119 -18.76879883 24.46850586 C-17.98046724 22.27570385 -17.19167444 20.08306757 -16.40234375 17.890625 C-15.87720688 16.3964782 -15.87720688 16.3964782 -15.34146118 14.87214661 C-13.34375659 9.36138627 -11.51500005 4.42282612 -6.3984375 1.0859375 C-4.16761401 0.30213465 -2.36315728 0.0414589 0 0 Z " fill="#020101" transform="translate(141.375,132.625)"></path>
    <path d="M0 0 C0.95648438 0.03544922 1.91296875 0.07089844 2.8984375 0.10742188 C18.82345492 0.83030546 18.82345492 0.83030546 24.5625 4.8125 C28.60004577 10.80369694 27.61221315 15.94532768 26.375 22.75 C22.8904136 39.16914169 16.78390791 55.2913568 6.5 68.6875 C4.5 69.6875 4.5 69.6875 1 69.0625 C-2.39099468 69.00639898 -3.51056525 69.69567906 -6.25 71.81640625 C-11.36522093 76.76098184 -11.36522093 76.76098184 -13.8515625 83.17578125 C-13.70239085 84.66492582 -13.54504608 86.15327793 -13.37890625 87.640625 C-13.54627099 90.46962902 -14.49731941 91.28386631 -16.5625 93.1875 C-32.87583471 105.55039303 -52.11811301 113.49499154 -70.875 121.3125 C-84.49830015 127.00695821 -97.41685238 132.67815215 -108.5 142.6875 C-109.24507813 143.33976563 -109.99015625 143.99203125 -110.7578125 144.6640625 C-124.27937814 157.24335875 -132.52948041 173.95990207 -136.12060547 191.91552734 C-137.26899725 197.50879275 -138.35957435 201.23250906 -143.18359375 204.51171875 C-147.13978362 205.91432552 -150.45932363 205.8779732 -154.5625 205.5 C-155.3040332 205.44175049 -156.04556641 205.38350098 -156.80957031 205.32348633 C-159.04284276 205.13610066 -161.27077011 204.91771134 -163.5 204.6875 C-164.76199219 204.56117188 -166.02398437 204.43484375 -167.32421875 204.3046875 C-173.28393377 203.55717478 -177.08942493 203.04484399 -181.5 198.6875 C-186.55976165 189.2285984 -181.20729746 175.82586235 -178.30957031 166.20458984 C-172.50862806 148.16848774 -163.63052987 132.36307073 -150.5 118.6875 C-149.39072441 117.35841404 -148.28634409 116.02522324 -147.1875 114.6875 C-130.27012146 95.40865672 -105.70598944 84.0146723 -82.39746094 74.7121582 C-57.14715869 64.5945963 -35.10619548 52.58131721 -23.6875 26.75 C-21.41675208 20.98400529 -20.00895135 15.0769843 -18.6875 9.03515625 C-15.19556074 -0.80889621 -8.87598037 -0.42294162 0 0 Z " fill="#010000" transform="translate(474.5,37.3125)"></path>
    <path d="M0 0 C3.27124306 1.41023531 5.19629114 3.06576773 7.5390625 5.73046875 C8.53486328 6.81038086 8.53486328 6.81038086 9.55078125 7.91210938 C10.92889574 9.42388281 12.28860468 10.95265043 13.62890625 12.49804688 C17.36992456 16.69704475 17.36992456 16.69704475 22.55297852 18.11254883 C24.27639162 17.85301514 25.99521084 17.56053995 27.70703125 17.2331543 C30 17 30 17 33.19921875 18.73828125 C34.02035156 19.58777344 34.84148437 20.43726563 35.6875 21.3125 C36.53699219 22.13363281 37.38648438 22.95476562 38.26171875 23.80078125 C40.23377028 27.43024239 39.99715689 27.88697922 39.18906498 31.69853973 C38.84025611 34.69655687 38.68948793 36.39653517 40.08065021 39.10019016 C41.84484598 41.22481317 43.71340564 43.11773794 45.71324158 45.02258301 C46.44742658 45.76475555 47.18161158 46.50692809 47.93804461 47.27159071 C50.40330769 49.75028302 52.90576919 52.18759313 55.40991211 54.62695312 C57.1855158 56.39617948 58.95868767 58.16784929 60.729599 59.94177246 C64.54694592 63.75484692 68.38039822 67.55047716 72.22953606 71.33143616 C77.79553759 76.79908056 83.32986464 82.29790811 88.85683257 87.80497402 C97.82653306 96.74086305 106.81978095 105.65265091 115.82885742 114.54882812 C124.57645087 123.18692755 133.31527648 131.83371616 142.04077148 140.49414062 C142.84765438 141.29499237 142.84765438 141.29499237 143.67083793 142.11202294 C149.53940202 147.93713367 155.40601906 153.76420362 161.27200413 159.59191132 C162.82633209 161.13602662 164.38067314 162.68012874 165.93503033 164.22421461 C166.95935616 165.24179437 167.98365113 166.25940518 169.00791473 167.27704757 C175.53323964 173.75987016 182.06693318 180.23409851 188.60978115 186.69923496 C192.35269711 190.39791897 196.09116708 194.10108943 199.82944679 197.80445862 C201.57083434 199.527645 203.31398346 201.2490532 205.05896759 202.96859741 C207.43037719 205.3056898 209.79575978 207.64871795 212.15977478 209.99328613 C212.86082759 210.68100995 213.56188041 211.36873376 214.28417724 212.07729769 C214.91180515 212.702124 215.53943305 213.32695031 216.18607998 213.97071075 C216.73341933 214.51132786 217.28075868 215.05194497 217.84468406 215.60894442 C219 217 219 217 219 219 C214.7199807 218.09029934 211.45413283 215.96210804 207.8125 213.625 C207.10472412 213.17656738 206.39694824 212.72813477 205.66772461 212.26611328 C200.08725261 208.72133545 194.53567506 205.13094655 188.99145508 201.52978516 C182.51369476 197.3227674 176.00827302 193.15962053 169.5 189 C158.98867777 182.27964644 148.50469737 175.5187354 138.0390625 168.72753906 C127.79153296 162.07980869 117.51227701 155.48290818 107.22070312 148.90356445 C100.64391159 144.69734931 94.08036816 140.47178649 87.53125 136.22265625 C81.20423143 132.12226152 74.85236834 128.06097833 68.5 124 C60.82928273 119.09622003 53.16877175 114.1779531 45.53125 109.22265625 C39.20423097 105.12226123 32.8523265 101.06104446 26.5 97 C16.64554583 90.69888765 6.80884447 84.37185307 -3 78 C-3.87720703 77.43023437 -4.75441406 76.86046875 -5.65820312 76.2734375 C-11.44000038 72.51746693 -17.22054508 68.75957372 -23 65 C-22.40070041 60.78602172 -21.42502282 57.00900326 -19.97460938 53.01049805 C-19.55747681 51.85297531 -19.14034424 50.69545258 -18.71057129 49.50285339 C-18.25952026 48.26827896 -17.80846924 47.03370453 -17.34375 45.76171875 C-16.87637783 44.47245021 -16.40938331 43.18304471 -15.94274902 41.89350891 C-14.96749461 39.20183021 -13.98876446 36.51145072 -13.00732422 33.82202148 C-11.74750818 30.36935507 -10.49482783 26.91415307 -9.24449921 23.45804119 C-8.28250489 20.80047505 -7.31762215 18.14396542 -6.35176086 15.48780251 C-5.8885528 14.21336169 -5.42605732 12.93866164 -4.96427917 11.66370201 C-4.32080499 9.88895206 -3.67320291 8.11570038 -3.02539062 6.3425293 C-2.6575647 5.33248337 -2.28973877 4.32243744 -1.9107666 3.28178406 C-1 1 -1 1 0 0 Z " fill="#F38C35" transform="translate(142,151)"></path>
    <path d="M0 0 C8.82982215 4.88013826 17.2337175 10.35876282 25.66357422 15.89038086 C32.97337516 20.6855028 40.31784662 25.42242684 47.6875 30.125 C55.14519299 34.88619064 62.58850106 39.66719777 70 44.5 C78.61316177 50.11575339 87.26926431 55.66280607 95.93359375 61.19921875 C102.44981086 65.36414077 108.9547161 69.54536513 115.4387207 73.76025391 C119.77397317 76.57376366 124.12848367 79.3558666 128.4921875 82.125 C130.21552612 83.22060737 131.93870681 84.31646277 133.66186523 85.41235352 C135.34376883 86.48017175 137.02830663 87.54383725 138.71289062 88.60742188 C140.25879883 89.5906543 140.25879883 89.5906543 141.8359375 90.59375 C142.75938965 91.17833984 143.6828418 91.76292969 144.63427734 92.36523438 C146.68102561 93.77958178 148.32731421 95.17121537 150 97 C145.9449193 98.54115409 141.87993956 100.05429789 137.8125 101.5625 C136.08676758 102.21895508 136.08676758 102.21895508 134.32617188 102.88867188 C133.21435547 103.29794922 132.10253906 103.70722656 130.95703125 104.12890625 C129.93585205 104.51119385 128.91467285 104.89348145 127.86254883 105.28735352 C124.73006421 106.06720193 123.05190828 105.97456966 120 105 C117.00089 103.14441031 114.12771827 101.19804046 111.25976562 99.15039062 C107.35055606 96.48871024 104.7327775 95.33071833 100 96 C97.2087875 97.98322993 96.17402776 99.12986121 95.5 102.5 C96.15899017 105.79495087 97.47750055 106.8278477 100 109 C101.33333333 110.33333333 102.66666667 111.66666667 104 113 C95.91685692 116.81102788 87.56393858 119.78898877 79.15991211 122.80102539 C76.67478513 123.69205887 74.19177485 124.58880731 71.70898438 125.48632812 C70.12251654 126.05762698 68.53593211 126.62860217 66.94921875 127.19921875 C66.21064133 127.46586838 65.4720639 127.73251801 64.71110535 128.00724792 C57.5299034 130.57566502 57.5299034 130.57566502 55 131 C52.77308225 129.78220302 50.85703355 128.54173381 48.8125 127.0625 C47.47462396 126.13257931 46.13461598 125.20572147 44.79296875 124.28125 C44.04192871 123.76175781 43.29088867 123.24226563 42.51708984 122.70703125 C37.62156016 119.38699793 32.6153562 116.23736349 27.625 113.0625 C25.43987824 111.66832279 23.25497931 110.27379626 21.0703125 108.87890625 C20.02649414 108.21262207 18.98267578 107.54633789 17.90722656 106.85986328 C13.44776066 104.00697352 9.00470663 101.1291032 4.56689453 98.24267578 C0.78285537 95.78604621 -3.01467321 93.35222255 -6.82653809 90.93893433 C-9.14296181 89.47233563 -11.45728691 88.00243889 -13.77172852 86.53271484 C-14.91823088 85.80617019 -16.0658462 85.08137866 -17.21459961 84.35839844 C-18.82286969 83.34610535 -20.42714975 82.32748154 -22.03125 81.30859375 C-22.96517578 80.71876709 -23.89910156 80.12894043 -24.86132812 79.52124023 C-27 78 -27 78 -28 76 C-27.08972791 73.04213734 -26.10656779 70.17309735 -25.03515625 67.2734375 C-24.72299667 66.41062164 -24.4108371 65.54780579 -24.08921814 64.65884399 C-23.08740171 61.89492677 -22.07508656 59.13498742 -21.0625 56.375 C-20.38277028 54.50546025 -19.70372479 52.63567156 -19.02539062 50.765625 C-17.35819577 46.17415378 -15.68157331 41.58622377 -14 37 C-10.80440833 38.20851593 -7.93845609 39.52775269 -5.05859375 41.36328125 C-3.95233643 42.06469238 -3.95233643 42.06469238 -2.82373047 42.78027344 C-2.03627441 43.2859082 -1.24881836 43.79154297 -0.4375 44.3125 C0.39894043 44.84520508 1.23538086 45.37791016 2.09716797 45.92675781 C8.78645141 50.19661939 15.44061941 54.52056912 22.08740234 58.85620117 C29.99126076 64.00840797 37.93169526 69.10289008 45.89477539 74.16308594 C50.66944865 77.20161548 55.41858481 80.25945724 60.0859375 83.4609375 C60.85075439 83.97897949 61.61557129 84.49702148 62.40356445 85.03076172 C63.787704 85.97272166 65.1623108 86.92893751 66.52416992 87.90283203 C71.17550935 91.04617501 74.38425464 91.71919898 80 91 C82.32749345 87.50875983 82.50299316 86.10777749 82 82 C79.29076421 78.84657601 76.23837705 76.7044985 72.73828125 74.49609375 C71.71089844 73.84382813 70.68351562 73.1915625 69.625 72.51953125 C68.531875 71.83246094 67.43875 71.14539063 66.3125 70.4375 C65.17020478 69.71412267 64.02828078 68.99015883 62.88671875 68.265625 C60.62041157 66.82749146 58.35285934 65.39140346 56.08447266 63.95654297 C52.20621819 61.49648825 48.34989586 59.00410365 44.5 56.5 C36.44730827 51.27390209 28.35833763 46.10488637 20.26928711 40.93530273 C13.14454089 36.37968868 6.03459913 31.80217642 -1.05078125 27.18554688 C-4.4479701 24.96036861 -4.4479701 24.96036861 -8 23 C-6.05797655 14.97928527 -3.33160505 7.54549287 0 0 Z " fill="#F58C35" transform="translate(80,321)"></path>
    <path d="M0 0 C4.89115079 2.02803813 7.87574654 5.87223901 11 10 C11.41040527 10.5377002 11.82081055 11.07540039 12.24365234 11.62939453 C22.63753568 25.45933396 22.63753568 25.45933396 21.7890625 32.8046875 C20.24754524 37.09346324 17.17305261 39.84546715 14 43 C5.46577943 53.03921797 0.60189869 62.61409587 0.6875 76 C0.68878906 76.86302734 0.69007813 77.72605469 0.69140625 78.61523438 C0.78758488 85.33331173 1.53480661 91.8572972 2.5 98.5 C5.46902025 119.25011399 5.71515563 139.68365423 -6 158 C-13.96976889 168.493784 -23.6529068 176.36325376 -36 181 C-36.79277344 181.3196875 -37.58554687 181.639375 -38.40234375 181.96875 C-44.77596331 184.1436344 -51.13915558 184.33843628 -57.8125 184.4375 C-58.7204834 184.45981689 -59.6284668 184.48213379 -60.56396484 184.50512695 C-66.21588621 184.48581039 -69.54073449 183.80617623 -74 180 C-77.13673779 176.13135673 -77.4765916 172.81433688 -77 168 C-76.23530545 164.24097182 -75.22704281 160.56623712 -74.1875 156.875 C-73.92646484 155.89917969 -73.66542969 154.92335937 -73.39648438 153.91796875 C-70.84047616 144.66585012 -70.84047616 144.66585012 -68 141 C-63.98896725 138.7898391 -60.36304755 137.82269724 -55.875 137 C-52.00581056 136.26608698 -49.03212634 135.66459588 -46 133 C-40.86390876 124.85309666 -42.60101846 115.08302864 -44.08129883 106.01147461 C-48.81913872 76.88550026 -47.39596816 48.22068198 -30.6875 23.1875 C-12.19977019 -2.11149869 -12.19977019 -2.11149869 0 0 Z " fill="#000101" transform="translate(315,4)"></path>
    <path d="M0 0 C4.20903435 0.90160985 7.41500506 2.95082619 11 5.25 C11.7000415 5.69327637 12.40008301 6.13655273 13.12133789 6.59326172 C19.42405766 10.59786292 25.68097896 14.67402518 31.93481445 18.75439453 C38.82790899 23.24980591 45.75271178 27.694223 52.6875 32.125 C59.63677279 36.56537977 66.58195772 41.01109604 73.5 45.5 C80.48119099 50.02950956 87.48846477 54.5176257 94.5 59 C102.17294125 63.90520173 109.83581253 68.8246837 117.4753418 73.78173828 C123.73700038 77.84006777 130.02477542 81.85721209 136.3125 85.875 C144.68851394 91.2280161 153.04474324 96.6090848 161.36645508 102.04614258 C166.10851159 105.13895489 170.87256691 108.19467405 175.65625 111.22265625 C176.80342709 111.95045515 177.95056259 112.67831961 179.09765625 113.40625 C181.32077575 114.81686848 183.54776366 116.22063045 185.77734375 117.62109375 C186.78925781 118.26304687 187.80117188 118.905 188.84375 119.56640625 C189.74287109 120.13302979 190.64199219 120.69965332 191.56835938 121.28344727 C193.99371672 122.99556448 195.97050817 124.84026866 198 127 C197.03811768 127.33733154 196.07623535 127.67466309 195.08520508 128.0222168 C191.45202955 129.29695443 187.81976492 130.57427127 184.18774414 131.85229492 C182.62776289 132.4008298 181.06754857 132.94870239 179.50708008 133.49584961 C177.23975119 134.29098166 174.97328135 135.08851771 172.70703125 135.88671875 C171.96429962 136.1470993 171.22156799 136.40747986 170.45632935 136.67575073 C166.99462772 137.89872541 163.56036809 139.15616802 160.16162109 140.54541016 C159.01902832 141.01124512 157.87643555 141.47708008 156.69921875 141.95703125 C155.71139404 142.37573486 154.72356934 142.79443848 153.70581055 143.22583008 C149.71671672 144.36716514 147.31688239 143.71352261 143.71777344 141.76342773 C142.93950195 141.24208252 142.16123047 140.7207373 141.359375 140.18359375 C140.46621582 139.59223633 139.57305664 139.00087891 138.65283203 138.39160156 C137.69489746 137.74674805 136.73696289 137.10189453 135.75 136.4375 C133.680422 135.06529782 131.61008245 133.69424368 129.5390625 132.32421875 C128.4655957 131.61185059 127.39212891 130.89948242 126.28613281 130.16552734 C120.93422437 126.63867535 115.52990516 123.19486189 110.125 119.75 C103.23757613 115.35226552 96.35485397 110.9483537 89.5 106.5 C82.58199901 102.01103159 75.63671346 97.56547214 68.6875 93.125 C60.30236682 87.7661559 51.94094406 82.37342286 43.60498047 76.93847656 C36.86338771 72.54853938 30.09116663 68.20742561 23.3125 63.875 C8.17751707 54.19870552 8.17751707 54.19870552 1.375 49.8125 C0.71927002 49.39145996 0.06354004 48.97041992 -0.61206055 48.53662109 C-4.83259901 45.80987803 -8.92915948 42.94586531 -13 40 C-12.41679953 34.68471693 -11.15192128 30.09294702 -9.27734375 25.09765625 C-9.01240616 24.3750914 -8.74746857 23.65252655 -8.47450256 22.9080658 C-7.63527171 20.62377732 -6.78656724 18.34314811 -5.9375 16.0625 C-5.36330002 14.50479021 -4.78972605 12.94684951 -4.21679688 11.38867188 C-2.81842074 7.58974014 -1.4115432 3.79405798 0 0 Z " fill="#F58C35" transform="translate(99,267)"></path>
    <path d="M0 0 C1.31967773 0.4959668 1.31967773 0.4959668 2.66601562 1.00195312 C7.56369327 2.93945506 10.89642043 4.48318041 13.6875 9.1875 C14.97670691 13.82864488 14.92424689 17.01485379 12.75390625 21.375 C4.57311902 35.27934167 -8.09453558 43.87960249 -23.56030273 48.04394531 C-32.85660597 50.37873875 -41.74671083 51.36455984 -51.30078125 51.14453125 C-52.99412888 51.12214027 -54.6874891 51.10068517 -56.38085938 51.08007812 C-59.00060289 51.04313208 -61.61967836 51.00012078 -64.23901367 50.94067383 C-79.32753282 50.61559425 -91.35739889 52.01066662 -103.3125 62.1875 C-105.49660613 64.39609162 -107.41101195 66.73501258 -109.3125 69.1875 C-110.38817558 70.48555082 -111.47143808 71.77735496 -112.5625 73.0625 C-113.04203125 73.63742187 -113.5215625 74.21234375 -114.015625 74.8046875 C-116.19665393 77.13024245 -117.49606417 77.20654714 -120.73828125 77.54296875 C-126.54091632 77.46304987 -131.34121286 74.94254193 -136.5 72.5 C-137.47130859 72.06494141 -138.44261719 71.62988281 -139.44335938 71.18164062 C-145.19358555 68.52132351 -150.362762 66.08697599 -153.3125 60.1875 C-154.66052493 52.09935043 -151.44410461 47.07511793 -146.92578125 40.6796875 C-132.6108279 21.27839096 -112.04725652 8.40920238 -88.09912109 4.57128906 C-79.80894391 3.73104673 -71.44672904 4.0669888 -63.125 4.1875 C-59.40235354 4.24110458 -55.67992211 4.2808579 -51.95703125 4.3125 C-50.70512749 4.33739502 -50.70512749 4.33739502 -49.42793274 4.36279297 C-39.66435654 4.44327431 -32.91505337 2.6365865 -25.1875 -3.5 C-17.79509274 -8.67468508 -7.38168601 -2.93608635 0 0 Z " fill="#010100" transform="translate(485.3125,228.8125)"></path>
    <path d="M0 0 C7.08142549 3.29843108 13.43916072 7.43075329 19.9375 11.75 C22.25627865 13.28097753 24.57733184 14.80849094 26.8984375 16.3359375 C27.48728226 16.72395538 28.07612701 17.11197327 28.68281555 17.51174927 C34.77447215 21.52098718 40.91426424 25.45306978 47.0625 29.375 C53.88735966 33.73122634 60.70827707 38.09225937 67.5 42.5 C74.4811484 47.02957455 81.48846536 51.51762607 88.5 56 C96.17071727 60.90377997 103.83122825 65.8220469 111.46875 70.77734375 C117.79576857 74.87773848 124.14763166 78.93902167 130.5 83 C138.17071727 87.90377997 145.83122825 92.8220469 153.46875 97.77734375 C159.79576884 101.87773865 166.147656 105.93898318 172.5 110 C181.67489898 115.86608779 190.83323987 121.75638777 199.96875 127.68359375 C202.14430561 129.09352114 204.32193403 130.50020399 206.5 131.90625 C213.69972884 136.55518676 220.89690689 141.20389439 228 146 C225.92840382 150.14319237 219.38880781 151.18357621 215.25 152.75 C214.15171875 153.18699219 213.0534375 153.62398437 211.921875 154.07421875 C210.8596875 154.47769531 209.7975 154.88117188 208.703125 155.296875 C207.73020508 155.67166992 206.75728516 156.04646484 205.75488281 156.43261719 C201.63026346 157.28210455 199.38080085 155.80620443 195.86621094 153.75415039 C195.16270508 153.29000732 194.45919922 152.82586426 193.734375 152.34765625 C192.93620361 151.82453857 192.13803223 151.3014209 191.31567383 150.76245117 C190.46900146 150.20146729 189.6223291 149.6404834 188.75 149.0625 C186.93630769 147.87222855 185.12250398 146.68212683 183.30859375 145.4921875 C182.40737793 144.89889648 181.50616211 144.30560547 180.57763672 143.69433594 C176.99970799 141.3424866 173.40817026 139.01210348 169.8125 136.6875 C169.14444336 136.2551001 168.47638672 135.8227002 167.78808594 135.37719727 C160.28273422 130.52543673 152.7497174 125.71684576 145.2199707 120.90307617 C138.64340783 116.69704783 132.08012206 112.47162681 125.53125 108.22265625 C119.20423116 104.12226135 112.852344 100.06101682 106.5 96 C95.98876508 89.27950891 85.50469829 82.51873599 75.0390625 75.72753906 C64.79153296 69.07980869 54.51227701 62.48290818 44.22070312 55.90356445 C37.65524324 51.70459651 31.09957852 47.4914683 24.56640625 43.24243164 C20.78258113 40.78580346 16.98517418 38.35212593 13.17346191 35.93893433 C10.85703819 34.47233563 8.54271309 33.00243889 6.22827148 31.53271484 C5.08176912 30.80617019 3.9341538 30.08137866 2.78540039 29.35839844 C1.17713031 28.34610535 -0.42714975 27.32748154 -2.03125 26.30859375 C-2.96517578 25.71876709 -3.89910156 25.12894043 -4.86132812 24.52124023 C-7 23 -7 23 -8 21 C-7.48681641 19.06054688 -7.48681641 19.06054688 -6.6015625 16.71875 C-6.28703125 15.87699219 -5.9725 15.03523437 -5.6484375 14.16796875 C-5.31070313 13.28753906 -4.97296875 12.40710938 -4.625 11.5 C-4.13 10.17935547 -4.13 10.17935547 -3.625 8.83203125 C-1.20773486 2.41546972 -1.20773486 2.41546972 0 0 Z " fill="#F0F0F0" transform="translate(113,230)"></path>
    <path d="M0 0 C7.87067623 4.51835117 11.84010623 12.73342943 16.18139648 20.40917969 C17.19566276 22.20192795 18.22088796 23.98805033 19.24804688 25.7734375 C23.88487632 33.89135625 26.33944267 39.46966142 25.375 48.9375 C21.13499608 57.74366198 12.1345113 62.03080677 3.97875977 66.66845703 C2.17793441 67.69294184 0.38261597 68.72659178 -1.41210938 69.76171875 C-9.15875161 74.19967034 -14.57668425 76.92758926 -23.625 75.9375 C-30.93259439 73.40052384 -34.53492043 67.33861331 -38.2265625 60.9375 C-39.20882813 59.2359375 -39.20882813 59.2359375 -40.2109375 57.5 C-40.54577148 56.91476563 -40.88060547 56.32953125 -41.22558594 55.7265625 C-42.24891535 53.93939426 -43.28019768 52.15699716 -44.3125 50.375 C-52.77628505 35.65537383 -52.77628505 35.65537383 -51.625 27.9375 C-48.95309892 19.97956758 -43.74789187 16.4438428 -36.625 12.3359375 C-35.490625 11.68109375 -34.35625 11.02625 -33.1875 10.3515625 C-32.60226562 10.01672852 -32.01703125 9.68189453 -31.4140625 9.33691406 C-29.62689426 8.31358465 -27.84449716 7.28230232 -26.0625 6.25 C-10.06324479 -2.94957175 -10.06324479 -2.94957175 0 0 Z " fill="#010100" transform="translate(467.625,148.0625)"></path>
    <path d="M0 0 C3.00052503 1.99647598 5.96480919 4.03832485 8.92285156 6.09716797 C9.93347656 6.78359375 10.94410156 7.47001953 11.98535156 8.17724609 C26.26216315 18.07920793 26.26216315 18.07920793 27.74707031 25.54248047 C28.63410915 36.21602972 23.22357763 42.99038668 17.29785156 51.28466797 C16.56050781 52.34685547 15.82316406 53.40904297 15.06347656 54.50341797 C13.1933835 57.14184383 11.27007814 59.72205686 9.29785156 62.28466797 C8.77578125 62.98462891 8.25371094 63.68458984 7.71582031 64.40576172 C4.42313243 68.58460834 1.53376378 70.72308012 -3.70214844 72.28466797 C-13.92617888 73.3800998 -21.58328852 67.0014702 -29.70214844 61.59716797 C-30.75660156 60.91460937 -31.81105469 60.23205078 -32.89746094 59.52880859 C-41.09529942 54.08926539 -48.52821258 48.77534625 -50.70605469 38.75341797 C-50.69447126 31.43268947 -47.88545742 26.37731206 -43.70214844 20.65966797 C-42.97064575 19.63631348 -42.97064575 19.63631348 -42.22436523 18.59228516 C-41.21624386 17.18251206 -40.20410111 15.7756061 -39.18798828 14.37158203 C-37.7598943 12.36577405 -36.38992263 10.33205814 -35.03417969 8.27685547 C-25.24970851 -6.39703374 -15.46662188 -9.81825852 0 0 Z " fill="#010000" transform="translate(204.7021484375,32.71533203125)"></path>
    <path d="M0 0 C0.86320862 -0.0066568 1.72641724 -0.0133136 2.61578369 -0.02017212 C4.44142531 -0.03028688 6.26710382 -0.0349895 8.09277344 -0.03466797 C10.86716799 -0.03902566 13.63995089 -0.07531349 16.4140625 -0.11328125 C18.19270293 -0.119153 19.97135087 -0.12312 21.75 -0.125 C22.98166901 -0.14655655 22.98166901 -0.14655655 24.23822021 -0.16854858 C29.94161646 -0.1239737 34.54286941 0.80489399 39.140625 4.3359375 C44.12663712 9.68758955 44.87889969 15.01117746 44.76953125 22.09375 C44.77194321 23.00043427 44.77435516 23.90711853 44.77684021 24.84127808 C44.77586631 26.74562991 44.76258268 28.65001168 44.73754883 30.55419922 C44.70313266 33.46029054 44.71694052 36.36335384 44.73632812 39.26953125 C44.7294315 41.12761703 44.71976077 42.98569502 44.70703125 44.84375 C44.71447105 46.13770187 44.71447105 46.13770187 44.72206116 47.45779419 C44.60033846 53.71902379 42.99696786 57.39578996 38.54296875 61.98046875 C33.22030184 66.2244085 29.20455432 66.5141512 22.59765625 66.57421875 C21.75522873 66.5822905 20.91280121 66.59036224 20.04484558 66.59867859 C18.26030527 66.61250728 16.47573865 66.62323487 14.69116211 66.63110352 C12.87467649 66.64260334 11.05822414 66.66302346 9.24194336 66.69262695 C6.61028189 66.73551755 3.97962485 66.7515038 1.34765625 66.76171875 C0.5452803 66.77922684 -0.25709564 66.79673492 -1.08378601 66.81477356 C-7.96842999 66.7886335 -13.32070531 64.87460719 -18.234375 59.9609375 C-21.5850189 54.5483589 -22.16795066 49.41115334 -22.16015625 43.15625 C-22.16444138 42.38465546 -22.1687265 41.61306091 -22.17314148 40.81808472 C-22.17885997 39.19269792 -22.17940342 37.56728555 -22.17504883 35.94189453 C-22.17189316 33.47513451 -22.19536291 31.00958047 -22.22070312 28.54296875 C-22.22297705 26.95573066 -22.22367918 25.36848939 -22.22265625 23.78125 C-22.231866 23.05390656 -22.24107574 22.32656311 -22.25056458 21.57717896 C-22.2007832 15.97647242 -21.35535385 10.10620792 -17.47822571 5.80300903 C-11.65120968 0.7782596 -7.43250589 0.01994928 0 0 Z " fill="#020100" transform="translate(397.859375,3.6640625)"></path>
    <path d="M0 0 C1.25727402 -0.00786278 1.25727402 -0.00786278 2.53994751 -0.0158844 C4.30656837 -0.02228423 6.07323195 -0.02099409 7.83984375 -0.01245117 C10.52422068 -0.00395323 13.20645853 -0.03270968 15.890625 -0.06445312 C17.6145827 -0.06606584 19.33854413 -0.06548627 21.0625 -0.0625 C21.85546478 -0.07373398 22.64842957 -0.08496796 23.46542358 -0.09654236 C29.08487746 -0.02725592 33.62975107 0.97381735 38.1640625 4.43359375 C43.14027663 9.77437393 43.90252933 15.08715861 43.79296875 22.15625 C43.79538071 23.06056259 43.79779266 23.96487518 43.80027771 24.89659119 C43.79930373 26.79674695 43.78601809 28.6969327 43.76098633 30.59692383 C43.72661069 33.49203526 43.74036773 36.38409993 43.75976562 39.27929688 C43.75286774 41.13412747 43.74319587 42.98895025 43.73046875 44.84375 C43.73790855 46.12995995 43.73790855 46.12995995 43.74549866 47.44215393 C43.63270634 53.24348062 42.53012389 56.67323358 39.1640625 61.43359375 C33.33205759 65.95637307 28.80817345 66.60653265 21.62109375 66.671875 C20.77866623 66.67994675 19.93623871 66.68801849 19.06828308 66.69633484 C17.28374277 66.71016353 15.49917615 66.72089112 13.71459961 66.72875977 C11.89811399 66.74025959 10.08166164 66.76067971 8.26538086 66.7902832 C5.63371939 66.8331738 3.00306235 66.84916005 0.37109375 66.859375 C-0.4312822 66.87688309 -1.23365814 66.89439117 -2.06034851 66.91242981 C-8.9229375 66.88637349 -14.19658305 64.93403481 -19.2109375 60.18359375 C-23.66937547 52.63854488 -23.17776374 44.15212297 -23.15161133 35.65258789 C-23.14844944 33.50420426 -23.17197518 31.35719876 -23.19726562 29.20898438 C-23.23792406 20.4770951 -23.17144088 12.58043579 -17.5234375 5.55859375 C-11.73765821 0.98379152 -7.15288579 -0.02634622 0 0 Z " fill="#010000" transform="translate(454.8359375,284.56640625)"></path>
    <path d="M0 0 C8.82982215 4.88013826 17.2337175 10.35876282 25.66357422 15.89038086 C32.97337516 20.6855028 40.31784662 25.42242684 47.6875 30.125 C55.14519299 34.88619064 62.58850106 39.66719777 70 44.5 C78.61316177 50.11575339 87.26926431 55.66280607 95.93359375 61.19921875 C102.44981086 65.36414077 108.9547161 69.54536513 115.4387207 73.76025391 C119.77397317 76.57376366 124.12848367 79.3558666 128.4921875 82.125 C130.21552612 83.22060737 131.93870681 84.31646277 133.66186523 85.41235352 C135.34376883 86.48017175 137.02830663 87.54383725 138.71289062 88.60742188 C140.25879883 89.5906543 140.25879883 89.5906543 141.8359375 90.59375 C142.75938965 91.17833984 143.6828418 91.76292969 144.63427734 92.36523438 C146.68102561 93.77958178 148.32731421 95.17121537 150 97 C145.9449193 98.54115409 141.87993956 100.05429789 137.8125 101.5625 C136.08676758 102.21895508 136.08676758 102.21895508 134.32617188 102.88867188 C133.21435547 103.29794922 132.10253906 103.70722656 130.95703125 104.12890625 C129.93585205 104.51119385 128.91467285 104.89348145 127.86254883 105.28735352 C124.73006421 106.06720193 123.05190828 105.97456966 120 105 C117.00089 103.14441031 114.12771827 101.19804046 111.25976562 99.15039062 C107.32091894 96.46853108 104.75464977 95.33370214 100 96 C98.76830078 96.59554687 98.76830078 96.59554687 97.51171875 97.203125 C95 98 95 98 91.95703125 96.796875 C83.30629544 91.16583703 83.30629544 91.16583703 82.375 87.62109375 C82.354375 86.81800781 82.33375 86.01492188 82.3125 85.1875 C81.90614219 81.13007884 81.2058358 80.17332127 78.0078125 77.48046875 C74.34779635 75.04184488 70.54724361 72.83692118 66.74560547 70.62792969 C61.57411619 67.56164029 56.55122735 64.25913973 51.5 61 C49.34426112 59.62029481 47.18801861 58.24137619 45.03125 56.86328125 C40.012329 53.65107759 35.0014492 50.42683274 30 47.1875 C29.33258789 46.75526123 28.66517578 46.32302246 27.97753906 45.87768555 C24.52970368 43.64318077 21.08454637 41.40459416 17.640625 39.1640625 C9.16407466 33.65566545 0.64222839 28.24545688 -8 23 C-6.05797655 14.97928527 -3.33160505 7.54549287 0 0 Z " fill="#F0F0F0" transform="translate(80,321)"></path>
    <path d="M0 0 C1.74991334 -0.02715383 3.49994945 -0.04646551 5.25 -0.0625 C6.71179688 -0.07990234 6.71179688 -0.07990234 8.203125 -0.09765625 C10.65758678 -0.01195577 12.66168914 0.29293934 15 1 C15.39387617 7.09687492 14.05838617 11.84847703 12 17.5625 C11.6911084 18.43495361 11.3822168 19.30740723 11.06396484 20.20629883 C8.29807332 27.73137414 4.76833556 37.23166444 -1 43 C-1.25005386 45.95817107 -1.25005386 45.95817107 -1 49 C-0.34 49.66 0.32 50.32 1 51 C0.79573877 55.08522462 -1.88645986 57.38550633 -4.5625 60.25 C-5.38878906 61.14203125 -6.21507812 62.0340625 -7.06640625 62.953125 C-7.70449219 63.62859375 -8.34257812 64.3040625 -9 65 C-9.515625 64.835 -10.03125 64.67 -10.5625 64.5 C-15.40824849 63.50600031 -18.77627875 63.30181251 -23.15625 65.80078125 C-24.27809842 66.6282607 -25.39223369 67.4662613 -26.5 68.3125 C-40.51932456 78.26445667 -56.74835368 84.516672 -72.5 91.1875 C-88.05338052 97.78313983 -103.69514761 104.49403409 -115.7109375 116.76953125 C-118 119 -118 119 -120 119 C-120.26683594 119.59167969 -120.53367187 120.18335938 -120.80859375 120.79296875 C-122.02053689 123.03804375 -123.29081898 124.49055853 -125.0625 126.3125 C-136.98181273 139.72172682 -143.48797881 156.63500634 -147 174 C-151.95 173.67 -156.9 173.34 -162 173 C-160.51120289 148.43484772 -147.74425177 127.33970881 -131 110 C-130.26910156 109.2059375 -129.53820312 108.411875 -128.78515625 107.59375 C-110.59308521 88.35148491 -85.29395794 78.84499914 -61.38330078 68.91308594 C-47.97747724 63.32851941 -36.00222865 56.55610979 -25 47 C-24.08154297 46.22462891 -24.08154297 46.22462891 -23.14453125 45.43359375 C-11.13097471 34.4646943 -2.05630207 16.03915613 0 0 Z " fill="#F25431" transform="translate(470,53)"></path>
    <path d="M0 0 C0.74121094 -0.01933594 1.48242188 -0.03867188 2.24609375 -0.05859375 C5.64168989 0.66862498 7.11819994 1.95850168 9.5625 4.4375 C10.7075163 6.47514086 11.67137875 8.55806052 12.64404297 10.68310547 C17.52112139 21.17582208 23.20912647 25.69739286 33.5859375 30.4921875 C36.89274632 32.02299784 39.30582322 33.48467614 41.5625 36.4375 C42.88909769 40.08383136 42.90828368 43.40014897 41.6875 47.0625 C37.90655343 51.28826381 33.13507139 54.40023322 27.87890625 56.51953125 C19.69837579 59.98900445 16.76895508 65.29465695 12.99829102 72.98925781 C10.78128955 77.49594931 9.03086599 80.7830945 4.5625 83.4375 C2.28125 84.00390625 2.28125 84.00390625 0.0625 84 C-0.6696875 84.02191406 -1.401875 84.04382813 -2.15625 84.06640625 C-6.96300111 82.7412574 -9.45590092 78.60264877 -11.89453125 74.51953125 C-12.68834428 73.1011645 -13.47339769 71.67786281 -14.25 70.25 C-14.65669922 69.52619141 -15.06339844 68.80238281 -15.48242188 68.05664062 C-18.4375 62.71763393 -18.4375 62.71763393 -18.4375 60.4375 C-19.70013672 60.06238281 -19.70013672 60.06238281 -20.98828125 59.6796875 C-24.76396503 58.31992822 -28.1578323 56.5532537 -31.625 54.5625 C-32.24052734 54.22347656 -32.85605469 53.88445313 -33.49023438 53.53515625 C-36.89620618 51.59415823 -39.53908448 49.91792845 -41.4375 46.4375 C-41.87109375 44.25390625 -41.87109375 44.25390625 -41.875 42 C-41.89433594 41.25878906 -41.91367187 40.51757812 -41.93359375 39.75390625 C-41.07929612 35.76494172 -38.93527102 33.41905179 -35.54760742 31.19897461 C-33.33111073 29.94229677 -31.08755489 28.77207046 -28.8125 27.625 C-27.64847656 27.01495117 -27.64847656 27.01495117 -26.4609375 26.39257812 C-20.73950893 23.4375 -20.73950893 23.4375 -18.4375 23.4375 C-18.18742187 22.59574219 -17.93734375 21.75398438 -17.6796875 20.88671875 C-16.31992822 17.11103497 -14.5532537 13.7171677 -12.5625 10.25 C-12.05396484 9.32670898 -12.05396484 9.32670898 -11.53515625 8.38476562 C-8.59952787 3.23346336 -6.16703172 0.0106881 0 0 Z " fill="#010000" transform="translate(59.4375,-0.4375)"></path>
    <path d="M0 0 C0.74121094 -0.01933594 1.48242188 -0.03867187 2.24609375 -0.05859375 C5.63983577 0.6682279 7.12011913 1.96039333 9.5625 4.4375 C10.69050078 6.45866914 11.63665009 8.52500406 12.59350586 10.63232422 C17.93958256 22.20256566 25.22869705 27.08056956 36.63647461 32.25927734 C38.94651733 33.67241794 40.11773974 35.1626825 41.5625 37.4375 C41.99609375 39.62109375 41.99609375 39.62109375 42 41.875 C42.01933594 42.61621094 42.03867187 43.35742188 42.05859375 44.12109375 C41.3317721 47.51483577 40.03960667 48.99511913 37.5625 51.4375 C35.54133086 52.56550078 33.47499594 53.51165009 31.36767578 54.46850586 C19.79743434 59.81458256 14.91943044 67.10369705 9.74072266 78.51147461 C8.32758206 80.82151733 6.8373175 81.99273974 4.5625 83.4375 C2.37890625 83.87109375 2.37890625 83.87109375 0.125 83.875 C-0.61621094 83.89433594 -1.35742188 83.91367187 -2.12109375 83.93359375 C-6.11005828 83.07929612 -8.45594821 80.93527102 -10.67602539 77.54760742 C-11.93270323 75.33111073 -13.10292954 73.08755489 -14.25 70.8125 C-14.86004883 69.64847656 -14.86004883 69.64847656 -15.48242188 68.4609375 C-18.4375 62.73950893 -18.4375 62.73950893 -18.4375 60.4375 C-19.70013672 60.06238281 -19.70013672 60.06238281 -20.98828125 59.6796875 C-24.76396503 58.31992822 -28.1578323 56.5532537 -31.625 54.5625 C-32.24052734 54.22347656 -32.85605469 53.88445312 -33.49023438 53.53515625 C-36.89620618 51.59415823 -39.53908448 49.91792845 -41.4375 46.4375 C-41.87109375 44.25390625 -41.87109375 44.25390625 -41.875 42 C-41.89433594 41.25878906 -41.91367187 40.51757812 -41.93359375 39.75390625 C-41.2067721 36.36016423 -39.91460667 34.87988087 -37.4375 32.4375 C-35.41633086 31.30949922 -33.34999594 30.36334991 -31.24267578 29.40649414 C-19.67243434 24.06041744 -14.79443044 16.77130295 -9.61572266 5.36352539 C-7.25857982 1.51033438 -4.4460464 0.00770545 0 0 Z " fill="#010000" transform="translate(470.4375,428.5625)"></path>
    <path d="M0 0 C3.68646141 1.45855647 5.16143971 3.30229045 7.25 6.625 C8.03117187 7.85089844 8.03117187 7.85089844 8.828125 9.1015625 C9.21484375 9.72804688 9.6015625 10.35453125 10 11 C9.154375 11.928125 8.30875 12.85625 7.4375 13.8125 C-6.22004342 29.85367128 -11.41206242 47.2778851 -10 68 C-9.58306659 71.55501197 -9.0463941 75.08785049 -8.5 78.625 C-7.2715334 86.68909261 -6.67057597 94.59063458 -6.625 102.75 C-6.61146484 103.72533691 -6.59792969 104.70067383 -6.58398438 105.70556641 C-6.66201752 118.31875801 -11.06568876 128.81403633 -19.5 138.1875 C-28.51201653 146.7315849 -41.02553648 151.36088258 -53.3125 151.0703125 C-53.869375 151.04710937 -54.42625 151.02390625 -55 151 C-54.79432504 149.35460033 -54.57675659 147.70995121 -54.3046875 146.07421875 C-53.95805636 144.00199226 -53.95805636 144.00199226 -53.9453125 141.89453125 C-53.71304759 139.41858731 -53.43150986 138.05469081 -52 136 C-48.85605504 134.62537471 -45.72636175 133.82134055 -42.40234375 132.9765625 C-34.88756222 130.81962176 -29.82446113 126.77835661 -25.97265625 120.02734375 C-25.65167969 119.35832031 -25.33070313 118.68929687 -25 118 C-24.63390625 117.30003906 -24.2678125 116.60007812 -23.890625 115.87890625 C-22.56500369 111.59389349 -22.66266203 107.46113164 -22.6875 103 C-22.68878906 102.02812744 -22.69007813 101.05625488 -22.69140625 100.05493164 C-22.77749859 93.39945587 -23.42974854 87.00055011 -24.5 80.4375 C-28.37952614 56.24270351 -26.15531267 33.75412336 -12.06640625 13.17578125 C-10.43677553 11.05550902 -8.75156259 9.0196589 -7 7 C-6.2575 6.030625 -5.515 5.06125 -4.75 4.0625 C-3 2 -3 2 0 0 Z " fill="#28C9F1" transform="translate(310,22)"></path>
    <path d="M0 0 C2.76179527 0.75908993 5.33795988 1.70302342 7.984375 2.796875 C8.86738281 3.15910156 9.75039063 3.52132812 10.66015625 3.89453125 C11.32402344 4.17167969 11.98789062 4.44882813 12.671875 4.734375 C9.30794331 12.38271719 2.22120648 16.31677666 -5.12890625 19.59375 C-13.99241311 22.75387699 -21.90813521 24.15444665 -31.3203125 24.0703125 C-33.59505494 24.08282347 -35.86979455 24.09586052 -38.14453125 24.109375 C-41.67474576 24.11329692 -45.20467588 24.10936857 -48.73486328 24.09472656 C-67.1837692 23.73684591 -67.1837692 23.73684591 -84.328125 29.734375 C-85.33987793 30.29906494 -86.35163086 30.86375488 -87.39404297 31.44555664 C-95.04240895 35.90472397 -101.13276931 41.59076092 -106.328125 48.734375 C-111.39810519 48.08018401 -115.74803277 45.8797341 -120.328125 43.734375 C-115.73948042 30.20868445 -100.28981873 19.66507911 -88 13.58203125 C-72.36957962 6.7243137 -56.30885966 7.45819504 -39.63549805 7.87133789 C-21.35622605 8.56143462 -21.35622605 8.56143462 -4.890625 1.421875 C-2.328125 -0.265625 -2.328125 -0.265625 0 0 Z " fill="#F9D04D" transform="translate(469.328125,240.265625)"></path>
    <path d="M0 0 C5.11005311 1.69653763 9.30176991 4.67123804 13.75 7.625 C15.54237175 8.8029922 17.33537046 9.98003085 19.12890625 11.15625 C20.07910645 11.78015625 21.02930664 12.4040625 22.00830078 13.046875 C27.21090933 16.44338784 32.45048566 19.78188577 37.6875 23.125 C39.79955496 24.47644405 41.91153544 25.82800452 44.0234375 27.1796875 C47.75386913 29.56616292 51.48829093 31.94614157 55.2265625 34.3203125 C56.7553242 35.2966936 58.28397835 36.27324314 59.8125 37.25 C60.4933667 37.67941895 61.1742334 38.10883789 61.87573242 38.55126953 C65.31932486 40.75939494 68.16436885 43.06619017 71 46 C66.92308123 47.53843466 62.83758284 49.05265189 58.75 50.5625 C57.59113281 51.00013672 56.43226562 51.43777344 55.23828125 51.88867188 C54.12324219 52.29794922 53.00820312 52.70722656 51.859375 53.12890625 C50.31975098 53.70233765 50.31975098 53.70233765 48.74902344 54.28735352 C45.12225947 55.22754215 43.38518862 54.71512874 40.1315918 53.03540039 C39.49390869 52.64344482 38.85622559 52.25148926 38.19921875 51.84765625 C37.47726318 51.40615234 36.75530762 50.96464844 36.01147461 50.50976562 C35.24456299 50.03216797 34.47765137 49.55457031 33.6875 49.0625 C32.48589233 48.3209668 32.48589233 48.3209668 31.26000977 47.56445312 C25.02932879 43.69598393 18.91453172 39.67209484 12.8359375 35.5703125 C8.44825351 32.61505783 4.00701544 29.7438043 -0.4375 26.875 C-1.19039307 26.38902344 -1.94328613 25.90304687 -2.71899414 25.40234375 C-4.47878873 24.26739035 -6.23931072 23.13356494 -8 22 C-7.26651604 17.34237688 -5.67128952 13.13319326 -4 8.75 C-3.72671875 8.0178125 -3.4534375 7.285625 -3.171875 6.53125 C-1.13225446 1.13225446 -1.13225446 1.13225446 0 0 Z " fill="#EFEFEF" transform="translate(47,413)"></path>
    <path d="M0 0 C4.82380802 -0.0246519 9.64757967 -0.04283693 14.47143555 -0.05493164 C16.11369464 -0.05997174 17.75594923 -0.06680378 19.39819336 -0.07543945 C21.75375479 -0.08751926 24.10925709 -0.09323139 26.46484375 -0.09765625 C27.20339096 -0.10281754 27.94193817 -0.10797882 28.7028656 -0.11329651 C30.46898088 -0.1134925 32.23497146 -0.06194719 34 0 C35.70492881 1.70492881 35.1280442 3.84534261 35.13894653 6.11901855 C35.1369223 6.83255493 35.13489807 7.54609131 35.1328125 8.28125 C35.13376923 9.00993286 35.13472595 9.73861572 35.13571167 10.48937988 C35.13639335 12.0327971 35.13453988 13.57621717 35.13037109 15.11962891 C35.12502262 17.489974 35.13031642 19.86012959 35.13671875 22.23046875 C35.13605797 23.72656292 35.1347768 25.22265697 35.1328125 26.71875 C35.13483673 27.43228638 35.13686096 28.14582275 35.13894653 28.88098145 C35.11495191 33.88504809 35.11495191 33.88504809 34 35 C31.56339554 35.10082764 29.15575299 35.13972603 26.71875 35.1328125 C25.99006714 35.13376923 25.26138428 35.13472595 24.51062012 35.13571167 C22.9672029 35.13639335 21.42378283 35.13453988 19.88037109 35.13037109 C17.510026 35.12502262 15.13987041 35.13031642 12.76953125 35.13671875 C11.27343708 35.13605797 9.77734303 35.1347768 8.28125 35.1328125 C7.21094543 35.13584885 7.21094543 35.13584885 6.11901855 35.13894653 C1.11495191 35.11495191 1.11495191 35.11495191 0 34 C-0.08847743 31.47905924 -0.11527301 28.98569107 -0.09765625 26.46484375 C-0.0962413 25.71159317 -0.09482635 24.95834259 -0.09336853 24.18226624 C-0.08775376 21.7673044 -0.07519883 19.35243399 -0.0625 16.9375 C-0.0574869 15.30403779 -0.05292366 13.67057414 -0.04882812 12.03710938 C-0.03777954 8.02470415 -0.02050506 4.01236759 0 0 Z " fill="#F35431" transform="translate(448,301)"></path>
    <path d="M0 0 C3.37509098 1.50797469 4.34913642 3.52091097 6.19384766 6.69628906 C6.52445694 7.26248459 6.85506622 7.82868011 7.19569397 8.41203308 C7.88853584 9.60862713 8.57307011 10.81006502 9.24975586 12.01586914 C10.28979591 13.8612273 11.36331405 15.68379645 12.44189453 17.50683594 C13.11131514 18.67294897 13.77870439 19.84023098 14.44384766 21.00878906 C15.05091553 22.07073486 15.6579834 23.13268066 16.28344727 24.22680664 C17.35400391 27.05175781 17.35400391 27.05175781 16.89697266 29.19775391 C14.77353564 31.7492382 12.44846342 33.09526978 9.57666016 34.75878906 C9.0095079 35.08844162 8.44235565 35.41809418 7.85801697 35.75773621 C6.66153223 36.44944318 5.46194757 37.1358122 4.25952148 37.81713867 C2.41767471 38.86359261 0.58980046 39.93181896 -1.23779297 41.00292969 C-2.40303789 41.67289172 -3.56902947 42.34155716 -4.73583984 43.00878906 C-5.79665771 43.61698486 -6.85747559 44.22518066 -7.95043945 44.85180664 C-10.64599609 46.05175781 -10.64599609 46.05175781 -13.64599609 45.05175781 C-15.36352539 42.61499023 -15.36352539 42.61499023 -17.22021484 39.40722656 C-17.54891068 38.84103104 -17.87760651 38.27483551 -18.21626282 37.69148254 C-18.9089706 36.4927702 -19.5971119 35.29140909 -20.28100586 34.08764648 C-21.32771325 32.24941367 -22.39283422 30.42283083 -23.46044922 28.59667969 C-24.1315083 27.43001536 -24.80146717 26.26271736 -25.47021484 25.09472656 C-26.07953857 24.03278076 -26.6888623 22.97083496 -27.31665039 21.87670898 C-28.64599609 19.05175781 -28.64599609 19.05175781 -28.64599609 15.05175781 C-25.04563707 12.87843771 -21.43450194 10.72467704 -17.81225586 8.58813477 C-16.58224362 7.85900463 -15.35530323 7.12466589 -14.1315918 6.38500977 C-12.36952539 5.32118811 -10.59717233 4.27673741 -8.82177734 3.23535156 C-7.22716675 2.28486938 -7.22716675 2.28486938 -5.6003418 1.31518555 C-2.64599609 0.05175781 -2.64599609 0.05175781 0 0 Z " fill="#FBD24D" transform="translate(460.64599609375,162.9482421875)"></path>
    <path d="M0 0 C1.05617271 -0.0049926 1.05617271 -0.0049926 2.13368225 -0.01008606 C3.62581731 -0.0151578 5.11796375 -0.01749431 6.61010742 -0.01733398 C8.89716232 -0.01951884 11.18373378 -0.03766674 13.47070312 -0.05664062 C14.91796709 -0.05957479 16.36523336 -0.06155943 17.8125 -0.0625 C18.49900131 -0.06968552 19.18550262 -0.07687103 19.89280701 -0.08427429 C24.74383256 -0.06085494 24.74383256 -0.06085494 26.97265625 2.16796875 C27.15979611 4.59363994 27.22850903 6.90294542 27.203125 9.328125 C27.20266678 10.03319687 27.20220856 10.73826874 27.20173645 11.46470642 C27.19871488 12.95508507 27.19083135 14.44546059 27.1784668 15.93579102 C27.16020081 18.22488508 27.15795716 20.51357502 27.15820312 22.80273438 C27.15328831 24.24870144 27.14746015 25.69466574 27.140625 27.140625 C27.13951218 27.82915054 27.13839935 28.51767609 27.13725281 29.22706604 C27.08871124 34.05191376 27.08871124 34.05191376 25.97265625 35.16796875 C23.45171549 35.25644618 20.95834732 35.28324176 18.4375 35.265625 C17.30762413 35.26350258 17.30762413 35.26350258 16.15492249 35.26133728 C13.73996065 35.25572251 11.32509024 35.24316758 8.91015625 35.23046875 C7.27669404 35.22545565 5.64323039 35.22089241 4.00976562 35.21679688 C-0.0026396 35.20574829 -4.01497616 35.18847381 -8.02734375 35.16796875 C-8.05199565 30.34416073 -8.07018068 25.52038908 -8.08227539 20.6965332 C-8.08731549 19.05427411 -8.09414753 17.41201952 -8.1027832 15.76977539 C-8.11486301 13.41421396 -8.12057514 11.05871166 -8.125 8.703125 C-8.13016129 7.96457779 -8.13532257 7.22603058 -8.14064026 6.46510315 C-8.14083625 4.69898787 -8.08929094 2.93299729 -8.02734375 1.16796875 C-6.11444757 -0.74492743 -2.60510292 0.00421048 0 0 Z " fill="#FAD14D" transform="translate(400.02734375,18.83203125)"></path>
    <path d="M0 0 C6.33296824 0.47566223 11.13080475 4.82276003 16.1875 8.3125 C17.19748047 8.98990234 18.20746094 9.66730469 19.24804688 10.36523438 C20.21162109 11.02458984 21.17519531 11.68394531 22.16796875 12.36328125 C23.04735107 12.96438721 23.9267334 13.56549316 24.83276367 14.18481445 C27.02171768 16.01818981 27.96481675 17.37094593 29 20 C26.9387234 23.02166977 24.8757544 26.04218045 22.8125 29.0625 C22.23435547 29.91005859 21.65621094 30.75761719 21.06054688 31.63085938 C17.76003655 36.46041968 14.41950489 41.25390752 11 46 C5.77466786 45.54341758 2.3247986 42.76792062 -1.8125 39.8125 C-2.52083984 39.31580811 -3.22917969 38.81911621 -3.95898438 38.30737305 C-8.70902387 34.96279027 -13.39863916 31.54688231 -18 28 C-17.36139232 24.34276136 -15.78111318 21.90701194 -13.69140625 18.8671875 C-13.02689453 17.89652344 -12.36238281 16.92585938 -11.67773438 15.92578125 C-10.97970703 14.91902344 -10.28167969 13.91226563 -9.5625 12.875 C-8.86833984 11.86050781 -8.17417969 10.84601562 -7.45898438 9.80078125 C-2.30103945 2.30103945 -2.30103945 2.30103945 0 0 Z " fill="#F35431" transform="translate(188,43)"></path>
    <path d="M0 0 C4.2541562 1.62112372 7.82490084 3.74248937 11.5625 6.3125 C12.87678988 7.20302587 14.19194396 8.09227722 15.5078125 8.98046875 C16.2184082 9.4604834 16.92900391 9.94049805 17.66113281 10.43505859 C22.05725435 13.37651361 26.49921746 16.24772766 30.9375 19.125 C31.83218994 19.70548096 32.72687988 20.28596191 33.64868164 20.8840332 C35.76529384 22.25678676 37.8823787 23.62880381 40 25 C37.71392409 27.28607591 36.05575398 27.86811857 33.03125 28.97119141 C31.99677734 29.35143463 30.96230469 29.73167786 29.89648438 30.1234436 C28.21522461 30.73136246 28.21522461 30.73136246 26.5 31.3515625 C25.35337891 31.77045746 24.20675781 32.18935242 23.02539062 32.62094116 C20.59862736 33.50614583 18.17086269 34.38860921 15.7421875 35.26855469 C12.01314176 36.62023645 8.28761801 37.98128612 4.5625 39.34375 C2.20853629 40.20107829 -0.14562386 41.05786745 -2.5 41.9140625 C-3.62083984 42.3233902 -4.74167969 42.7327179 -5.89648438 43.15444946 C-7.44819336 43.71535782 -7.44819336 43.71535782 -9.03125 44.28759766 C-9.94455078 44.61909821 -10.85785156 44.95059875 -11.79882812 45.29214478 C-14 46 -14 46 -16 46 C-13.25906317 36.28303262 -9.76602923 26.85523985 -6.3125 17.375 C-5.6996171 15.6862896 -5.0869848 13.99748824 -4.47460938 12.30859375 C-2.98596094 8.2046743 -1.4939233 4.10200206 0 0 Z " fill="#F46D1A" transform="translate(33,449)"></path>
    <path d="M0 0 C1 3 1 3 0.8125 5.4375 C0.75584648 8.12308672 0.75584648 8.12308672 2.75 10.0625 C3.4925 10.701875 4.235 11.34125 5 12 C6.33333333 13.33333333 7.66666667 14.66666667 9 16 C0.91685692 19.81102788 -7.43606142 22.78898877 -15.84008789 25.80102539 C-18.32521487 26.69205887 -20.80822515 27.58880731 -23.29101562 28.48632812 C-24.87748346 29.05762698 -26.46406789 29.62860217 -28.05078125 30.19921875 C-28.78935867 30.46586838 -29.5279361 30.73251801 -30.28889465 31.00724792 C-39.38448322 34.26036145 -39.38448322 34.26036145 -41.75170898 33.2590332 C-42.32735596 32.86031006 -42.90300293 32.46158691 -43.49609375 32.05078125 C-44.13740234 31.61443359 -44.77871094 31.17808594 -45.43945312 30.72851562 C-46.09880859 30.26123047 -46.75816406 29.79394531 -47.4375 29.3125 C-48.09298828 28.86455078 -48.74847656 28.41660156 -49.42382812 27.95507812 C-53.06959507 25.4428997 -56.57905861 22.81453174 -60 20 C-59.05253906 19.66174194 -59.05253906 19.66174194 -58.0859375 19.31665039 C-44.94925952 14.62109249 -31.8421965 9.85934061 -18.79492188 4.92016602 C-4.99808116 -0.29400477 -4.99808116 -0.29400477 0 0 Z " fill="#F56E1B" transform="translate(175,418)"></path>
    <path d="M0 0 C7.61852128 4.30668986 14.92289083 8.84874133 22 14 C18.82334176 16.11777216 15.98467695 17.16979482 12.3828125 18.42578125 C11.72981171 18.65524948 11.07681091 18.88471771 10.40402222 19.12113953 C8.31237779 19.85555537 6.21884506 20.58438444 4.125 21.3125 C2.07471967 22.02801292 0.02489969 22.74479348 -2.02423096 23.46359253 C-3.37611817 23.93777102 -4.72861722 24.41020879 -6.08172607 24.88088989 C-9.32998122 26.01953247 -12.54578549 27.20095396 -15.73144531 28.50537109 C-16.87452148 28.97152832 -18.01759766 29.43768555 -19.1953125 29.91796875 C-20.19836426 30.34231201 -21.20141602 30.76665527 -22.23486328 31.20385742 C-26.22849643 32.35371065 -28.61965372 31.75552441 -32.2199707 29.78491211 C-32.94788818 29.28741455 -33.67580566 28.78991699 -34.42578125 28.27734375 C-35.22177734 27.73916016 -36.01777344 27.20097656 -36.83789062 26.64648438 C-38.06282227 25.80053711 -38.06282227 25.80053711 -39.3125 24.9375 C-40.14845703 24.36966797 -40.98441406 23.80183594 -41.84570312 23.21679688 C-43.90219899 21.81837969 -45.95327542 20.41266246 -48 19 C-45.52451118 17.34967412 -43.84352557 16.48537458 -41.10546875 15.5546875 C-40.32486084 15.28599854 -39.54425293 15.01730957 -38.73999023 14.74047852 C-37.89766846 14.45487061 -37.05534668 14.1692627 -36.1875 13.875 C-30.40208256 11.88875359 -24.62973525 9.87867863 -18.890625 7.76171875 C-17.89651611 7.3951416 -16.90240723 7.02856445 -15.87817383 6.65087891 C-13.94174811 5.93418436 -12.0066479 5.21389656 -10.07299805 4.48974609 C-9.19168213 4.16441895 -8.31036621 3.8390918 -7.40234375 3.50390625 C-6.62366943 3.21330322 -5.84499512 2.9227002 -5.04272461 2.62329102 C-3 2 -3 2 0 2 C0 1.34 0 0.68 0 0 Z " fill="#F56E1A" transform="translate(275,379)"></path>
    <path d="M0 0 C4.68139254 -0.02465288 9.36274759 -0.04283739 14.04418945 -0.05493164 C15.63794614 -0.05997157 17.23169819 -0.0668035 18.82543945 -0.07543945 C21.11150253 -0.08751999 23.39750467 -0.09323155 25.68359375 -0.09765625 C26.40026718 -0.10281754 27.11694061 -0.10797882 27.85533142 -0.11329651 C29.57063672 -0.11349263 31.28581266 -0.06192007 33 0 C34 1 34 1 34.11352539 4.14282227 C34.11336633 5.53402697 34.10767506 6.92523761 34.09765625 8.31640625 C34.0962413 9.04746078 34.09482635 9.77851532 34.09336853 10.53172302 C34.08775408 12.87535632 34.07519922 15.21889539 34.0625 17.5625 C34.05748686 19.14778508 34.05292363 20.73307166 34.04882812 22.31835938 C34.03777997 26.2122761 34.02050572 30.10612205 34 34 C30 34 30 34 28.34210205 32.82312012 C27.80027283 32.27240845 27.2584436 31.72169678 26.70019531 31.15429688 C26.07985413 30.53365356 25.45951294 29.91301025 24.82037354 29.27355957 C24.16293152 28.59547241 23.5054895 27.91738525 22.828125 27.21875 C22.1457074 26.53067261 21.46328979 25.84259521 20.76019287 25.13366699 C18.58057691 22.93164254 16.41526826 20.71612543 14.25 18.5 C12.77566042 17.00560138 11.30041082 15.51209998 9.82421875 14.01953125 C6.20550002 10.35668561 2.59955354 6.68167744 -1 3 C-0.67 2.01 -0.34 1.02 0 0 Z " fill="#28CDF5" transform="translate(231,214)"></path>
    <path d="M0 0 C2.8349246 2.61639916 4.49510422 4.7822653 6 8.3125 C9.22403901 14.49446687 14.95355802 17.00088763 21 20 C18.67767699 22.60130337 16.352559 23.89103814 13.25 25.4375 C6.87927831 29.10860502 4.15307123 34.54768868 1 41 C-1.37637012 38.13845431 -3.34592774 35.44692845 -5 32.125 C-8.39969175 26.4480544 -14.27386991 23.92242684 -20 21 C-17.67767699 18.39869663 -15.352559 17.10896186 -12.25 15.5625 C-5.87927831 11.89139498 -3.15307123 6.45231132 0 0 Z " fill="#F9BD25" transform="translate(59,21)"></path>
    <path d="M0 0 C2.60130337 2.32232301 3.89103814 4.647441 5.4375 7.75 C9.10860502 14.12072169 14.54768868 16.84692877 21 20 C18.67767699 22.60130337 16.352559 23.89103814 13.25 25.4375 C6.87927831 29.10860502 4.15307123 34.54768868 1 41 C-1.60130337 38.67767699 -2.89103814 36.352559 -4.4375 33.25 C-8.10860502 26.87927831 -13.54768868 24.15307123 -20 21 C-17.67767699 18.39869663 -15.352559 17.10896186 -12.25 15.5625 C-5.87927831 11.89139498 -3.15307123 6.45231132 0 0 Z " fill="#FABD25" transform="translate(470,450)"></path>
    <path d="M0 0 C1.86582188 1.37359539 3.70085136 2.79016448 5.5 4.25 C7.24006185 5.41086984 8.98921909 6.55830355 10.75 7.6875 C12.0024774 8.53802987 13.25352959 9.39069085 14.5 10.25 C10.18205605 13.1286293 5.47745859 14.64827299 0.625 16.4375 C-0.36886719 16.81841797 -1.36273438 17.19933594 -2.38671875 17.59179688 C-3.83111328 18.12450195 -3.83111328 18.12450195 -5.3046875 18.66796875 C-6.18108887 18.99563232 -7.05749023 19.3232959 -7.96044922 19.66088867 C-12.45813725 20.70423814 -14.97539131 19.57458245 -18.83984375 17.18359375 C-20.65423375 15.94154145 -22.45074706 14.67804191 -24.24023438 13.40039062 C-28.17198877 10.72336004 -30.7502488 9.6605159 -35.5 10.25 C-38.28566059 11.16257306 -38.28566059 11.16257306 -40.5 12.25 C-40.83 11.59 -41.16 10.93 -41.5 10.25 C-37.2057735 8.55239935 -32.90627369 6.87470211 -28.58984375 5.234375 C-25.32250555 3.98577396 -22.12554943 2.64989262 -18.94140625 1.203125 C-6.9767132 -4.00940227 -6.9767132 -4.00940227 0 0 Z " fill="#E1E1E1" transform="translate(215.5,406.75)"></path>
    <path d="M0 0 C7.61852128 4.30668986 14.92289083 8.84874133 22 14 C17.66670602 16.88886266 12.93459689 18.39908775 8.0625 20.1875 C7.06025391 20.56841797 6.05800781 20.94933594 5.02539062 21.34179688 C3.57616211 21.87450195 3.57616211 21.87450195 2.09765625 22.41796875 C0.77519897 22.90946411 0.77519897 22.90946411 -0.57397461 23.41088867 C-4.08410424 24.26325285 -5.94794915 23.54930741 -9.09057617 21.90844727 C-9.81736572 21.46557373 -10.54415527 21.0227002 -11.29296875 20.56640625 C-12.08767578 20.08236328 -12.88238281 19.59832031 -13.70117188 19.09960938 C-14.52166016 18.59236328 -15.34214844 18.08511719 -16.1875 17.5625 C-17.43563477 16.80743164 -17.43563477 16.80743164 -18.70898438 16.03710938 C-24.87278164 12.25443673 -24.87278164 12.25443673 -26 10 C-22.60583457 8.8491847 -19.20939392 7.7052339 -15.8125 6.5625 C-14.85279297 6.23701172 -13.89308594 5.91152344 -12.90429688 5.57617188 C-11.97294922 5.26357422 -11.04160156 4.95097656 -10.08203125 4.62890625 C-9.22843018 4.34088135 -8.3748291 4.05285645 -7.49536133 3.75610352 C-5.01189087 3.00360298 -2.5514032 2.46552619 0 2 C0 1.34 0 0.68 0 0 Z " fill="#E0E0E0" transform="translate(96,444)"></path>
    <path d="M0 0 C7.33170632 3.85099726 14.16198078 8.33718825 21 13 C18.92840382 17.14319237 12.38880781 18.18357621 8.25 19.75 C6.60257812 20.40548828 6.60257812 20.40548828 4.921875 21.07421875 C3.8596875 21.47769531 2.7975 21.88117188 1.703125 22.296875 C0.73020508 22.67166992 -0.24271484 23.04646484 -1.24511719 23.43261719 C-6.03389191 24.41889089 -9.30231316 21.96184021 -13.20703125 19.3984375 C-13.95791016 18.90859375 -14.70878906 18.41875 -15.48242188 17.9140625 C-16.25134766 17.40617187 -17.02027344 16.89828125 -17.8125 16.375 C-18.60076172 15.859375 -19.38902344 15.34375 -20.20117188 14.8125 C-22.1367352 13.54558583 -24.06953942 12.27467036 -26 11 C-23.24113694 9.16075796 -21.02578385 8.18537274 -17.9296875 7.08984375 C-16.95128906 6.73986328 -15.97289062 6.38988281 -14.96484375 6.02929688 C-13.43537109 5.48885742 -13.43537109 5.48885742 -11.875 4.9375 C-9.85066785 4.21996696 -7.82718055 3.50004437 -5.8046875 2.77734375 C-4.90733887 2.46015381 -4.00999023 2.14296387 -3.08544922 1.81616211 C-1.04443203 1.17802348 -1.04443203 1.17802348 0 0 Z " fill="#E0E0E0" transform="translate(320,363)"></path>
    <path d="M0 0 C2.94682027 2.5102543 4.42544636 4.85673808 6 8.3125 C9.22403901 14.49446687 14.95355802 17.00088763 21 20 C18.66531531 22.61606363 16.3011288 23.9312285 13.1875 25.5 C7.14554427 28.98540345 4.73481606 33.7521682 2 40 C1.67 40 1.34 40 1 40 C0.67 28.12 0.34 16.24 0 4 C-0.99 4.495 -0.99 4.495 -2 5 C-1.34 3.35 -0.68 1.7 0 0 Z " fill="#F99D00" transform="translate(59,21)"></path>
    <path d="M0 0 C2.60130337 2.32232301 3.89103814 4.647441 5.4375 7.75 C9.10860502 14.12072169 14.54768868 16.84692877 21 20 C18.67767699 22.60130337 16.352559 23.89103814 13.25 25.4375 C6.87927831 29.10860502 4.15307123 34.54768868 1 41 C0.34 40.34 -0.32 39.68 -1 39 C-0.34 39 0.32 39 1 39 C1 26.79 1 14.58 1 2 C0.34 1.67 -0.32 1.34 -1 1 C-0.67 0.67 -0.34 0.34 0 0 Z " fill="#F99D00" transform="translate(470,450)"></path>
    <path d="M0 0 C4.39081764 1.5214886 8.02875969 3.85939639 11.8125 6.5 C12.7087207 7.10521484 12.7087207 7.10521484 13.62304688 7.72265625 C15.12143611 8.76039782 16.56615614 9.87475797 18 11 C18 11.66 18 12.32 18 13 C14.56561785 14.34146494 11.12701583 15.67175905 7.6875 17 C6.71103516 17.3815625 5.73457031 17.763125 4.72851562 18.15625 C3.79072266 18.5171875 2.85292969 18.878125 1.88671875 19.25 C1.02264404 19.58515625 0.15856934 19.9203125 -0.73168945 20.265625 C-3 21 -3 21 -6 21 C-5.42381249 15.85404946 -4.25256722 11.44921945 -2.4375 6.5625 C-1.98246094 5.32628906 -1.52742188 4.09007812 -1.05859375 2.81640625 C-0.70925781 1.88699219 -0.35992187 0.95757812 0 0 Z " fill="#F08A34" transform="translate(33,449)"></path>
    <path d="M0 0 C5.62219846 4.66522851 11.16010796 9.51259405 16 15 C16 15.66 16 16.32 16 17 C11.32284613 16.03276069 7.8138587 13.63607488 3.8125 11.125 C3.07580078 10.67769531 2.33910156 10.23039062 1.58007812 9.76953125 C0.87947266 9.33253906 0.17886719 8.89554687 -0.54296875 8.4453125 C-1.18258545 8.04844238 -1.82220215 7.65157227 -2.48120117 7.24267578 C-4 6 -4 6 -5 3 C-3.35 2.67 -1.7 2.34 0 2 C0 1.34 0 0.68 0 0 Z " fill="#DF6519" transform="translate(345,353)"></path>
  </symbol>
  <symbol version="1.1" xmlns="http://www.w3.org/2000/svg" viewBox="0 0 512 512" id="face down">
    <path d="M0 0 C3.40722658 1.36420606 5.71514189 4.11826003 8.24934793 6.69066244 C9.18552441 7.62299402 9.18552441 7.62299402 10.14061356 8.57416058 C12.23595918 10.66455378 14.32038328 12.76551007 16.40504861 14.86655051 C17.90251225 16.3648601 19.40063627 17.86250992 20.89937234 19.35954672 C24.97186689 23.43117867 29.03502971 27.51201045 33.09661984 31.5945161 C37.34070433 35.85732302 41.5932558 40.1116658 45.84492898 44.36690146 C53.89732616 52.42863213 61.94204389 60.49798136 69.98405266 68.5700736 C79.13888515 77.75840948 88.30221256 86.93825331 97.46627498 96.11738223 C116.3196134 115.00209924 135.16222113 133.89749286 153.99782205 152.79990011 C158.23876193 151.15365372 161.05918443 147.99576461 164.18446755 144.82011801 C165.11028532 143.89157178 165.11028532 143.89157178 166.05480647 142.94426703 C168.12456802 140.86608281 170.18708606 138.78085439 172.24977517 136.69565207 C173.73107437 135.20560478 175.21285188 133.71603286 176.69507241 132.22690207 C179.88710617 129.01837031 183.07615459 125.80691033 186.26306558 122.59329039 C191.29850249 117.51655365 196.34311297 112.44900155 201.38954568 107.38319784 C215.73852203 92.97658607 230.0774482 78.5600227 244.40163064 64.12875754 C252.31194465 56.1594673 260.23110402 48.19907828 268.16017318 40.24844718 C273.18361938 35.21031886 278.19575891 30.16128194 283.20000863 25.10408944 C286.30939617 21.96705797 289.42911561 18.84046712 292.55194688 15.71682364 C294.00275969 14.26142346 295.44924531 12.80169555 296.89114594 11.33746535 C298.85321152 9.34624207 300.8299058 7.37081814 302.81117654 5.39873129 C303.38432989 4.8096495 303.95748323 4.2205677 304.54800487 3.61363494 C306.15858102 2.02948862 306.15858102 2.02948862 308.99782205 -0.20009989 C312.18717496 0.23930533 313.78092601 1.21186458 316.02223611 3.48373801 C316.58251504 4.04424353 317.14279397 4.60474905 317.72005105 5.18223959 C318.31187173 5.78954413 318.90369241 6.39684866 319.51344705 7.02255636 C320.12927651 7.64263067 320.74510598 8.26270499 321.37959695 8.90156943 C323.34282839 10.88157916 325.29536641 12.87176931 327.24782205 14.86240011 C328.57785952 16.20748546 329.90858083 17.55189499 331.24000955 18.89560324 C334.50059742 22.18924917 337.75163392 25.4920635 340.99782205 28.79990011 C339.66080864 31.77023416 338.19424817 33.85271671 335.89374757 36.15007025 C335.25230408 36.79549583 334.61086059 37.44092142 333.94997942 38.10590535 C332.89065264 39.15649361 332.89065264 39.15649361 331.80992532 40.22830588 C331.06092639 40.97901366 330.31192745 41.72972144 329.54023159 42.50317794 C327.02220158 45.02450955 324.49707608 47.53861333 321.97194314 50.0528298 C320.16828593 51.85592305 318.36506865 53.65945645 316.56225991 55.46339804 C312.67630789 59.34980591 308.78730777 63.23312285 304.89550805 67.11367422 C299.26862533 72.72430432 293.64727196 78.34044755 288.0272537 83.95795259 C278.909046 93.07178282 269.78638071 102.18113758 260.66090798 111.28769308 C251.79626097 120.13398266 242.93371652 128.98236994 234.07399392 137.83359152 C233.52789918 138.37916082 232.98180443 138.92473011 232.41916136 139.48683181 C229.67958321 142.2237999 226.94004636 144.96080933 224.20053005 147.69783932 C201.47269502 170.40494022 178.73762456 193.10478372 155.99782205 215.79990011 C153.027488 214.46288671 150.94500545 212.99632624 148.64765191 210.69582564 C148.00222633 210.05438215 147.35680074 209.41293866 146.69181681 208.75205749 C145.99142463 208.04583964 145.29103246 207.33962178 144.56941628 206.61200339 C143.8187085 205.86300445 143.06800072 205.11400552 142.29454422 204.34230965 C139.77321261 201.82427965 137.25910883 199.29915414 134.74489236 196.77402121 C132.94179911 194.970364 131.13826571 193.16714672 129.33432412 191.36433798 C125.44791625 187.47838596 121.56459931 183.58938583 117.68404794 179.69758612 C112.07341784 174.07070339 106.45727461 168.44935003 100.83976957 162.82933177 C91.72593934 153.71112406 82.61658458 144.58845877 73.51002908 135.46298605 C64.6637395 126.59833904 55.81535222 117.73579459 46.96413064 108.87607199 C46.41856134 108.32997725 45.87299205 107.7838825 45.31089035 107.22123943 C42.57392226 104.48166128 39.83691283 101.74212443 37.09988284 99.00260812 C14.39278194 76.27477309 -8.30706155 53.53970263 -31.00217795 30.79990011 C-29.08244717 26.6247646 -26.24383884 23.70071903 -23.04124045 20.46786886 C-22.45426383 19.87186377 -21.86728721 19.27585867 -21.26252341 18.66179281 C-20.02287951 17.40767272 -18.78043187 16.1563186 -17.53538108 14.90756613 C-15.62856249 12.98879334 -13.74119001 11.05215771 -11.85374045 9.11435324 C-10.64655925 7.89771419 -9.43826322 6.68218008 -8.22874045 5.46786886 C-7.66506766 4.88466376 -7.10139487 4.30145865 -6.52064109 3.70058066 C-2.52244238 -0.25209569 -2.52244238 -0.25209569 0 0 Z " fill="#000000" transform="translate(101.00217795372009,148.20009988546371)"></path>
  </symbol>
  <symbol version="1.1" xmlns="http://www.w3.org/2000/svg" viewBox="0 0 494 505" id="wavee">
    <path d="M0 0 C1.95799674 1.25052718 3.91629822 2.50057742 5.875 3.75 C6.63554687 4.23984375 7.39609375 4.7296875 8.1796875 5.234375 C12.41531808 7.886044 16.71008792 10.43736647 21 13 C21.8559375 13.51353027 22.711875 14.02706055 23.59375 14.55615234 C64.58606599 39.12842597 108.02793278 59.89730964 157 48 C163.96226442 46.18278168 170.69843197 43.88609381 177.33642578 41.11230469 C179.11953408 40.36768128 180.90698096 39.63336733 182.69848633 38.90917969 C189.85805849 35.9922496 196.76925394 32.75768948 203.625 29.1875 C204.68170898 28.63924561 205.73841797 28.09099121 206.82714844 27.52612305 C216.34627355 22.50276233 225.49015773 16.95151589 234.58447266 11.20581055 C235.61362793 10.55652588 236.6427832 9.90724121 237.703125 9.23828125 C238.60708008 8.66118408 239.51103516 8.08408691 240.44238281 7.48950195 C242.90666609 6.05435568 245.32731045 4.98285421 248 4 C249 5 249 5 249.3359375 7.34765625 C249 10 249 10 247.1640625 11.80859375 C246.32617188 12.34613281 245.48828125 12.88367188 244.625 13.4375 C243.81289063 13.97246094 243.00078125 14.50742187 242.1640625 15.05859375 C238.68224467 17.19496839 235.18329744 19.30073372 231.67675781 21.39624023 C229.07068164 22.95765162 226.4743585 24.53429043 223.87890625 26.11328125 C212.22000272 33.15584214 200.47251539 39.51989455 188 45 C187.08605469 45.40476562 186.17210937 45.80953125 185.23046875 46.2265625 C182.84172733 47.22763642 180.43803378 48.12544908 178 49 C177.40525879 49.22252441 176.81051758 49.44504883 176.19775391 49.67431641 C136.50806732 64.42496303 98.15653888 60.51907092 59.96476746 43.0274353 C38.30929382 32.93185083 18.13142749 20.281375 -2.07226562 7.58544922 C-42.8950198 -18.25052471 -42.8950198 -18.25052471 -88 -35 C-89.17175781 -35.29777344 -90.34351563 -35.59554687 -91.55078125 -35.90234375 C-141.65428938 -47.23323973 -187.10288003 -23.825173 -228.21972656 2.04931641 C-231.83424948 4.33675361 -235.44080533 6.62720355 -239 9 C-241.1875 8.625 -241.1875 8.625 -243 8 C-243.23706055 5.6796875 -243.23706055 5.6796875 -243 3 C-241.42895508 1.4453125 -241.42895508 1.4453125 -239.20703125 0.125 C-238.38283691 -0.37902344 -237.55864258 -0.88304687 -236.70947266 -1.40234375 C-235.81534668 -1.92957031 -234.9212207 -2.45679688 -234 -3 C-232.16960473 -4.14428609 -230.34020422 -5.29016467 -228.51171875 -6.4375 C-226.57154788 -7.62701732 -224.63012465 -8.81449422 -222.6875 -10 C-221.73166016 -10.59039062 -220.77582031 -11.18078125 -219.79101562 -11.7890625 C-213.03134433 -15.91668963 -206.11836479 -19.53458831 -199 -23 C-197.60498027 -23.70480038 -196.21151002 -24.4126847 -194.8203125 -25.125 C-123.97065319 -61.1901782 -63.45444356 -40.76310498 0 0 Z " fill="#3B3B3B" transform="translate(244,246)"></path>
  </symbol>
  <symbol version="1.1" xmlns="http://www.w3.org/2000/svg" viewBox="0 0 512 512" id="happy">
    <path d="M0 0 C0.81176193 -0.00979385 1.62352386 -0.01958771 2.45988464 -0.02967834 C20.42209711 -0.20170332 37.75572087 -0.02748286 55.3125 4.23828125 C56.18745117 4.44195312 57.06240234 4.645625 57.96386719 4.85546875 C73.48556156 8.55736715 89.68894829 14.09103102 103.2265625 22.66796875 C104.75410156 23.44527344 104.75410156 23.44527344 106.3125 24.23828125 C109.52976097 23.13835963 111.21875412 21.45549613 113.2578125 18.796875 C113.77730469 18.13107422 114.29679687 17.46527344 114.83203125 16.77929688 C115.36183594 16.08513672 115.89164062 15.39097656 116.4375 14.67578125 C117.49931962 13.29694355 118.56427761 11.92051524 119.6328125 10.546875 C120.33301514 9.63119751 120.33301514 9.63119751 121.04736328 8.69702148 C123.30720357 6.09135847 124.63711657 6.21210249 128.1875 5.92578125 C131.09655515 5.76539608 132.01997917 5.99402131 134.29394531 7.89282227 C136.60958366 10.58347752 137.53129729 12.83932055 138.6796875 16.19140625 C139.29070312 17.94602173 139.29070312 17.94602173 139.9140625 19.73608398 C140.33429688 20.97430908 140.75453125 22.21253418 141.1875 23.48828125 C141.63367586 24.7611096 142.08160009 26.0333264 142.53125 27.30493164 C144.42162463 32.66687849 146.27177015 38.03464671 147.9453125 43.46875 C148.18266113 44.19739258 148.42000977 44.92603516 148.66455078 45.67675781 C149.26220323 47.52060793 149.82046818 49.37710115 150.375 51.234375 C156.09626059 60.10463587 172.41410589 63.14648436 182.03369141 66.65698242 C184.30476664 67.48834542 186.57049323 68.33312244 188.8359375 69.1796875 C189.52763031 69.42771622 190.21932312 69.67574493 190.93197632 69.93128967 C194.88014695 71.41661579 197.73032874 72.85395619 200.3125 76.23828125 C201.08653846 81.65655048 201.08653846 81.65655048 200.3125 84.23828125 C196.82791213 88.23910436 192.71991443 91.37526036 188.5 94.55078125 C187.6037793 95.23237305 187.6037793 95.23237305 186.68945312 95.92773438 C185.23302412 97.03462042 183.77312183 98.13693389 182.3125 99.23828125 C182.90404542 102.67030373 183.77939896 105.61826211 185.203125 108.79296875 C185.76918457 110.07361206 185.76918457 110.07361206 186.34667969 111.38012695 C186.74790039 112.28206787 187.14912109 113.18400879 187.5625 114.11328125 C196.72468774 135.22999409 203.31887668 157.72946478 203.55078125 180.92578125 C203.56052979 181.73767914 203.57027832 182.54957703 203.58032227 183.38607788 C203.75173951 201.36538996 203.50155732 218.65052935 199.3125 236.23828125 C199.14121582 237.01075195 198.96993164 237.78322266 198.79345703 238.57910156 C187.707873 287.88386049 154.44319235 329.94625726 112.37890625 356.77734375 C101.54865299 363.49054619 90.16158642 368.59684487 78.3125 373.23828125 C77.65072754 373.4997998 76.98895508 373.76131836 76.30712891 374.03076172 C59.55709669 380.51043861 40.58294134 384.29702964 22.625 384.4765625 C21.81305679 384.48631104 21.00111359 384.49605957 20.16456604 384.50610352 C2.22839048 384.67710236 -15.16125245 384.55948623 -32.6875 380.23828125 C-33.47012207 380.04572754 -34.25274414 379.85317383 -35.05908203 379.65478516 C-40.0100204 378.39037866 -44.85508187 376.89541844 -49.6875 375.23828125 C-50.68354248 374.90207764 -50.68354248 374.90207764 -51.69970703 374.55908203 C-88.47501105 361.98109367 -120.45970552 338.28077095 -143.6875 307.23828125 C-144.31398437 306.40683594 -144.94046875 305.57539063 -145.5859375 304.71875 C-162.43892395 281.49644238 -173.5754003 254.42567961 -178.6875 226.23828125 C-178.86700195 225.25021484 -179.04650391 224.26214844 -179.23144531 223.24414062 C-180.88108132 213.1102407 -181.08528551 203.11097269 -181.0625 192.86328125 C-181.06228851 191.98387878 -181.06207703 191.10447632 -181.06185913 190.19842529 C-181.02756773 175.87762322 -180.01570572 162.21174879 -176.6875 148.23828125 C-176.51621582 147.46581055 -176.34493164 146.69333984 -176.16845703 145.89746094 C-173.46406887 133.8692984 -168.77372424 122.73309221 -163.89453125 111.44140625 C-162.30425365 107.75369206 -160.85859324 104.0852244 -159.6875 100.23828125 C-160.43640503 99.67898926 -160.43640503 99.67898926 -161.20043945 99.10839844 C-163.47131499 97.40741948 -165.73567332 95.69796688 -168 93.98828125 C-168.78568359 93.40175781 -169.57136719 92.81523437 -170.38085938 92.2109375 C-171.13818359 91.63730469 -171.89550781 91.06367188 -172.67578125 90.47265625 C-173.72052612 89.68713379 -173.72052612 89.68713379 -174.78637695 88.88574219 C-177.31896549 86.69107063 -179.48824884 84.63576887 -179.97265625 81.23828125 C-179.89917969 80.57828125 -179.82570313 79.91828125 -179.75 79.23828125 C-179.67458984 78.24828125 -179.67458984 78.24828125 -179.59765625 77.23828125 C-177.35619496 72.31283841 -170.90024945 70.36889112 -166.13850403 68.57505798 C-165.32580551 68.2770076 -164.51310699 67.97895721 -163.67578125 67.671875 C-162.8257402 67.35170914 -161.97569916 67.03154327 -161.09989929 66.70167542 C-157.48647267 65.34079011 -153.86657389 63.9975286 -150.24682617 62.65356445 C-147.59561496 61.66627743 -144.94815713 60.66939109 -142.30078125 59.671875 C-141.48201004 59.37180038 -140.66323883 59.07172577 -139.81965637 58.76255798 C-139.05843979 58.47538406 -138.29722321 58.18821014 -137.51293945 57.89233398 C-136.84486771 57.64458725 -136.17679596 57.39684052 -135.48847961 57.1415863 C-131.42885722 55.10542921 -130.12143284 52.31182571 -128.671875 48.14453125 C-128.31109863 47.12246582 -127.95032227 46.10040039 -127.57861328 45.04736328 C-127.2020459 43.95536621 -126.82547852 42.86336914 -126.4375 41.73828125 C-125.63837653 39.47513479 -124.83889334 37.21211531 -124.0390625 34.94921875 C-123.25508114 32.71228416 -122.47122206 30.4753067 -121.6875 28.23828125 C-120.40945295 24.6082479 -119.11700175 20.98388085 -117.8125 17.36328125 C-117.53889648 16.58017578 -117.26529297 15.79707031 -116.98339844 14.99023438 C-115.67958116 11.38090624 -114.60269385 8.75226316 -111.6875 6.23828125 C-108.50409096 5.18353729 -105.89213315 5.2850043 -102.6875 6.23828125 C-99.13836218 9.14857426 -96.46071581 12.59937919 -93.6875 16.23828125 C-92.98753906 17.11871094 -92.28757812 17.99914062 -91.56640625 18.90625 C-89.9133811 20.99830799 -88.28885381 23.10657553 -86.6875 25.23828125 C-86.19048584 24.99706543 -85.69347168 24.75584961 -85.18139648 24.50732422 C-58.29870874 11.50346169 -30.31695528 0.30330055 0 0 Z " fill="#FEC85A" transform="translate(244.6875,63.76171875)"></path>
    <path d="M0 0 C1.42103279 0.01273453 1.42103279 0.01273453 2.87077332 0.02572632 C5.88767673 0.05923347 8.90187751 0.13450774 11.91796875 0.2109375 C13.96675819 0.24104058 16.01558966 0.26841578 18.06445312 0.29296875 C23.07916156 0.35901617 28.09185745 0.46251969 33.10546875 0.5859375 C33.35868896 1.40215576 33.61190918 2.21837402 33.87280273 3.05932617 C34.21641846 4.1341626 34.56003418 5.20899902 34.9140625 6.31640625 C35.24978271 7.38012451 35.58550293 8.44384277 35.93139648 9.53979492 C40.14825767 20.48048468 51.36159569 25.99550899 61.41796875 30.7109375 C86.63121263 41.13725675 118.68718766 43.56036371 145.10546875 36.5859375 C145.90629883 36.38194336 146.70712891 36.17794922 147.53222656 35.96777344 C162.38622036 32.10674667 179.44918133 27.00474331 188.47265625 13.546875 C190.66857044 9.39547517 191.82757664 5.09932279 193.10546875 0.5859375 C199.13770078 0.46219355 205.1691916 0.37152937 211.20239258 0.3112793 C213.25395581 0.28615944 215.30542976 0.25205714 217.35668945 0.20874023 C220.30832966 0.14797748 223.25878525 0.11970258 226.2109375 0.09765625 C227.12570358 0.07184982 228.04046967 0.0460434 228.98295593 0.01945496 C233.49289966 0.01747567 235.48059056 0.12112639 239.19824219 2.88647461 C241.72833806 6.46753837 241.60658752 9.27722568 241.16796875 13.4609375 C241.10440186 14.20980225 241.04083496 14.95866699 240.9753418 15.73022461 C237.95952491 46.15496731 221.04161934 77.71284234 197.75390625 97.49609375 C181.46073054 110.84984942 163.50903023 120.47905313 143.10546875 125.5859375 C141.90019531 125.90691406 140.69492187 126.22789062 139.453125 126.55859375 C121.2205902 130.74215296 100.20413962 130.45762988 82.10546875 125.5859375 C81.39841797 125.39789551 80.69136719 125.20985352 79.96289062 125.01611328 C63.32005079 120.40817282 47.5165066 112.49491605 34.10546875 101.5859375 C33.57727539 101.1616748 33.04908203 100.73741211 32.50488281 100.30029297 C25.80515393 94.89635692 19.36497508 89.44822792 14.10546875 82.5859375 C13.33847656 81.59335937 12.57148438 80.60078125 11.78125 79.578125 C1.1461914 65.45231088 -5.91250942 50.5075598 -10.89453125 33.5859375 C-11.25417969 32.40386719 -11.61382812 31.22179687 -11.984375 30.00390625 C-12.91424336 26.51191132 -13.52030191 23.10124774 -14.01953125 19.5234375 C-14.18710938 18.35683594 -14.3546875 17.19023437 -14.52734375 15.98828125 C-14.64851562 14.86550781 -14.7696875 13.74273437 -14.89453125 12.5859375 C-15.01570313 11.57660156 -15.136875 10.56726563 -15.26171875 9.52734375 C-14.84888987 6.22032089 -13.79484428 4.35747304 -11.60540771 1.85820007 C-8.16502854 -0.70017615 -4.11569616 -0.13932927 0 0 Z " fill="#A2284B" transform="translate(142.89453125,263.4140625)"></path>
    <path d="M0 0 C3.51569915 2.93566944 4.8954499 5.65720664 6.3671875 9.953125 C6.77453125 11.12286865 7.181875 12.2926123 7.6015625 13.49780273 C8.02179688 14.73602783 8.44203125 15.97425293 8.875 17.25 C9.32117586 18.52282835 9.76910009 19.79504515 10.21875 21.06665039 C12.10912463 26.42859724 13.95927015 31.79636546 15.6328125 37.23046875 C15.98883545 38.32343262 15.98883545 38.32343262 16.35205078 39.43847656 C16.94970323 41.28232668 17.50796818 43.1388199 18.0625 44.99609375 C23.78376059 53.86635462 40.10160589 56.90820311 49.72119141 60.41870117 C51.99226664 61.25006417 54.25799323 62.09484119 56.5234375 62.94140625 C57.21513031 63.18943497 57.90682312 63.43746368 58.61947632 63.69300842 C62.56764695 65.17833454 65.41782874 66.61567494 68 70 C68.77403846 75.41826923 68.77403846 75.41826923 68 78 C64.47829305 82.02480794 60.32427 85.27868908 56.125 88.5625 C55.53847656 89.03107422 54.95195312 89.49964844 54.34765625 89.98242188 C50.94783722 92.65370825 47.52493115 94.8963968 43.74072266 96.97924805 C40.68025374 98.77389328 37.91838688 100.94589958 35.125 103.125 C34.54492188 103.56714844 33.96484375 104.00929688 33.3671875 104.46484375 C30.21079649 106.8175898 30.21079649 106.8175898 28 110 C27.85038865 111.51411465 27.75609514 113.03388443 27.69042969 114.55395508 C27.64658142 115.49866165 27.60273315 116.44336823 27.55755615 117.41670227 C27.51278137 118.44063583 27.46800659 119.4645694 27.421875 120.51953125 C27.31236231 122.67779377 27.20164742 124.83599557 27.08984375 126.99414062 C26.91646248 130.40405411 26.74995088 133.81364813 26.60400391 137.22485352 C26.46067879 140.51204607 26.2875626 143.79656792 26.109375 147.08203125 C26.07269714 148.09989212 26.03601929 149.11775299 25.99822998 150.16645813 C25.72033751 154.86304412 25.52377539 157.30280626 22.63891602 161.14282227 C19.05916966 163.66212382 17.30509109 163.74273137 13 163 C10.19803718 161.59266239 7.79499866 159.78004917 5.3125 157.875 C3.82189662 156.78346892 2.33099809 155.69234079 0.83984375 154.6015625 C-0.77381613 153.40155064 -2.38708136 152.20100796 -4 151 C-7.52418948 148.39177195 -11.06873244 145.81425782 -14.625 143.25 C-15.45346436 142.6297998 -16.28192871 142.00959961 -17.13549805 141.37060547 C-17.92867432 140.79971191 -18.72185059 140.22881836 -19.5390625 139.640625 C-20.23209473 139.13047852 -20.92512695 138.62033203 -21.63916016 138.09472656 C-26.78569044 135.70826929 -32.13543445 137.06662764 -37.421875 138.42578125 C-38.61296875 138.72806641 -39.8040625 139.03035156 -41.03125 139.34179688 C-42.2584375 139.66212891 -43.485625 139.98246094 -44.75 140.3125 C-45.96171875 140.62123047 -47.1734375 140.92996094 -48.421875 141.24804688 C-54.87474687 142.89950923 -61.30624816 144.61392264 -67.71630859 146.42456055 C-71.00350557 147.25286109 -73.64392846 147.53697145 -77 147 C-80 145 -80 145 -82 142 C-81.67717979 135.29585006 -79.70127801 129.18046348 -77.6875 122.8125 C-77.37353271 121.79526855 -77.05956543 120.77803711 -76.73608398 119.72998047 C-75.41198905 115.44877432 -74.0698482 111.17573334 -72.6484375 106.92578125 C-72.29007812 105.83652344 -71.93171875 104.74726563 -71.5625 103.625 C-71.25441406 102.73039062 -70.94632812 101.83578125 -70.62890625 100.9140625 C-69.03998255 93.55172037 -69.38728237 89.40171771 -73.47265625 82.8203125 C-74.98372675 80.57158532 -76.50980149 78.34405562 -78.0625 76.125 C-78.82420612 75.00783102 -79.5839866 73.88934656 -80.34179688 72.76953125 C-81.83290571 70.5700924 -83.33024285 68.3754158 -84.83154297 66.18286133 C-86.91634221 63.1227929 -88.98337223 60.05481791 -91.01171875 56.95703125 C-91.57205811 56.1060083 -92.13239746 55.25498535 -92.7097168 54.37817383 C-94.80071393 50.52417135 -94.9028473 48.28852465 -94 44 C-91.83559616 41.48374035 -90.08272868 40.17536217 -86.76586914 39.63815308 C-83.97233424 39.48976064 -81.20363525 39.47289262 -78.40625 39.49609375 C-76.86982849 39.4819619 -76.86982849 39.4819619 -75.30236816 39.46754456 C-72.03470798 39.43890134 -68.76777558 39.43581632 -65.5 39.4375 C-62.23233081 39.43389224 -58.96519053 39.42435927 -55.69763184 39.39674377 C-53.66653123 39.37995906 -51.63525636 39.37707675 -49.60412598 39.38975525 C-43.61920963 39.34519241 -39.85652466 38.88784924 -35.48608398 34.46948242 C-34.87228882 33.67054565 -34.87228882 33.67054565 -34.24609375 32.85546875 C-33.55290039 31.96311523 -33.55290039 31.96311523 -32.84570312 31.05273438 C-32.14864258 30.12944336 -32.14864258 30.12944336 -31.4375 29.1875 C-30.96892578 28.58357422 -30.50035156 27.97964844 -30.01757812 27.35742188 C-27.92437519 24.63772184 -25.93631843 21.90365144 -24.04296875 19.0390625 C-21.50476414 15.26330115 -18.71985042 11.7349108 -15.875 8.1875 C-15.06869141 7.1675293 -15.06869141 7.1675293 -14.24609375 6.12695312 C-13.72917969 5.48048828 -13.21226562 4.83402344 -12.6796875 4.16796875 C-12.21288574 3.58297607 -11.74608398 2.9979834 -11.26513672 2.39526367 C-8.36559852 -0.80250955 -4.01771943 -0.82628569 0 0 Z " fill="#FA9200" transform="translate(377,70)"></path>
    <path d="M0 0 C7.69771583 2.26905728 12.85127778 12.48060109 17.2890625 18.71484375 C19.84415755 22.25160907 22.47724049 25.71758841 25.15234375 29.1640625 C25.60399902 29.75541992 26.0556543 30.34677734 26.52099609 30.95605469 C26.96008301 31.5184082 27.39916992 32.08076172 27.8515625 32.66015625 C28.23530029 33.15572021 28.61903809 33.65128418 29.0144043 34.16186523 C29.49304932 34.67821533 29.97169434 35.19456543 30.46484375 35.7265625 C31.12597168 36.44086426 31.78709961 37.15516602 32.46826172 37.89111328 C36.91133281 40.61255767 40.91230856 40.23529028 46.0234375 40.16015625 C48.12174553 40.16976145 50.22005281 40.17953217 52.31835938 40.18945312 C55.61442542 40.18085234 58.91029674 40.16400902 62.20629883 40.1418457 C65.39573223 40.12731254 68.58404378 40.14258699 71.7734375 40.16015625 C72.75485214 40.14367538 73.73626678 40.12719452 74.74742126 40.11021423 C79.2447325 40.14296836 82.47744812 40.22947718 86.09375 43.08203125 C88.46484375 45.7265625 88.46484375 45.7265625 89.09375 48.60546875 C88.30223182 52.5335621 86.59895591 55.38882868 84.40234375 58.6640625 C83.97203857 59.33574463 83.5417334 60.00742676 83.09838867 60.69946289 C80.29432933 65.05079079 77.37237583 69.3145821 74.42578125 73.5703125 C73.74008057 74.57843994 73.05437988 75.58656738 72.34790039 76.62524414 C70.98814866 78.62086137 69.60761354 80.6025053 68.20483398 82.56811523 C67.57520752 83.49567627 66.94558105 84.4232373 66.296875 85.37890625 C65.72686768 86.19351318 65.15686035 87.00812012 64.56958008 87.84741211 C62.0246512 94.47997483 64.84799232 101.75776182 66.96875 108.234375 C67.46683853 109.81378895 67.96488413 111.39321643 68.46289062 112.97265625 C69.24580195 115.42002278 70.03208366 117.86627417 70.82006836 120.31201172 C71.58629724 122.70023898 72.34040305 125.09205875 73.09375 127.484375 C73.33122452 128.20746857 73.56869904 128.93056213 73.81336975 129.67556763 C75.21493344 134.13969189 75.83218569 137.9923384 75.46484375 142.7265625 C73.90234375 145.6640625 73.90234375 145.6640625 71.46484375 147.7265625 C65.02414126 148.38692747 59.15996665 146.60713946 52.96484375 144.9765625 C51.90273682 144.70505371 50.84062988 144.43354492 49.74633789 144.15380859 C45.08715656 142.95725978 40.43815154 141.73012823 35.8046875 140.4375 C34.79728516 140.1585791 34.79728516 140.1585791 33.76953125 139.87402344 C32.03878497 139.38974035 30.31215762 138.89080185 28.5859375 138.390625 C22.94370063 137.19014907 19.22134797 136.96199152 14.29296875 140.11328125 C12.75582551 141.19797789 11.2302985 142.29926518 9.71484375 143.4140625 C8.89790039 143.99115967 8.08095703 144.56825684 7.23925781 145.1628418 C4.6364436 147.0020677 2.0491847 148.86148484 -0.53515625 150.7265625 C-3.93885269 153.18295594 -7.35680467 155.61723978 -10.78515625 158.0390625 C-11.9448291 158.89213989 -11.9448291 158.89213989 -13.12792969 159.76245117 C-16.65417566 162.25077307 -19.02363016 163.6365718 -23.33203125 164.39453125 C-26.53515625 163.7265625 -26.53515625 163.7265625 -28.68579102 161.58813477 C-30.84789859 158.24264791 -31.12916337 156.22769338 -31.328125 152.2734375 C-31.4000708 151.02175781 -31.4720166 149.77007812 -31.54614258 148.48046875 C-31.57495514 147.82578613 -31.6037677 147.17110352 -31.63345337 146.49658203 C-31.72333302 144.46123699 -31.83665055 142.42835708 -31.95581055 140.39453125 C-32.28342128 134.6587003 -32.54464426 128.92289172 -32.69921875 123.1796875 C-32.72604736 122.40786133 -32.75287598 121.63603516 -32.78051758 120.84082031 C-32.8425724 118.88665759 -32.87196397 116.93153102 -32.8984375 114.9765625 C-34.17940297 108.43813753 -39.27320211 104.87755736 -44.41015625 101.1015625 C-45.39757812 100.36679688 -46.385 99.63203125 -47.40234375 98.875 C-50.1134824 97.01574032 -52.87001208 95.40839988 -55.73681641 93.80712891 C-58.95144149 91.87556081 -61.8526533 89.5560616 -64.78515625 87.2265625 C-65.70167969 86.51693359 -65.70167969 86.51693359 -66.63671875 85.79296875 C-74.23947154 79.80040596 -74.23947154 79.80040596 -74.8203125 75.7265625 C-74.74683594 75.0665625 -74.67335938 74.4065625 -74.59765625 73.7265625 C-74.52224609 72.7365625 -74.52224609 72.7365625 -74.4453125 71.7265625 C-72.20385121 66.80111966 -65.7479057 64.85717237 -60.98616028 63.06333923 C-60.17346176 62.76528885 -59.36076324 62.46723846 -58.5234375 62.16015625 C-57.67339645 61.83999039 -56.82335541 61.51982452 -55.94755554 61.18995667 C-52.33412892 59.82907136 -48.71423014 58.48580985 -45.09448242 57.1418457 C-42.44327121 56.15455868 -39.79581338 55.15767234 -37.1484375 54.16015625 C-36.32966629 53.86008163 -35.51089508 53.56000702 -34.66731262 53.25083923 C-33.90609604 52.96366531 -33.14487946 52.67649139 -32.3605957 52.38061523 C-31.69252396 52.1328685 -31.02445221 51.88512177 -30.33613586 51.62986755 C-26.27651347 49.59371046 -24.96908909 46.80010696 -23.51953125 42.6328125 C-23.15875488 41.61074707 -22.79797852 40.58868164 -22.42626953 39.53564453 C-22.04970215 38.44364746 -21.67313477 37.35165039 -21.28515625 36.2265625 C-20.48603278 33.96341604 -19.68654959 31.70039656 -18.88671875 29.4375 C-18.10273739 27.20056541 -17.31887831 24.96358795 -16.53515625 22.7265625 C-15.2571092 19.09652915 -13.964658 15.4721621 -12.66015625 11.8515625 C-12.38655273 11.06845703 -12.11294922 10.28535156 -11.83105469 9.47851562 C-9.4054785 2.76384745 -7.32812541 -0.26129458 0 0 Z " fill="#FA9200" transform="translate(139.53515625,69.2734375)"></path>
    <path d="M0 0 C52.8 0 105.6 0 160 0 C158.56639009 10.0352694 155.84948158 15.187338 148.06640625 21.76953125 C123.02970184 39.98094299 87.60885437 43.37521267 57.796875 39.08984375 C38.369487 35.80778734 18.78201205 29.93520081 5 15 C1.51160483 9.96013626 0.89353508 6.25474553 0 0 Z " fill="#F7F8F9" transform="translate(176,264)"></path>
  </symbol>
</svg>