<svg width="0" height="0" class="hidden">
  <symbol version="1.1" xmlns="http://www.w3.org/2000/svg" viewBox="0 0 512 512" id="top">
    <path d="M0 0 C8.67951296 6.96153188 16.40508222 15.237195 24.2746582 23.08178711 C25.68655151 24.48576188 27.09862006 25.88956046 28.510849 27.29319763 C33.11118452 31.86754534 37.70627951 36.44713767 42.30078125 41.02734375 C43.88994506 42.61114087 45.47911428 44.19493258 47.0682888 45.77871895 C53.67706418 52.36591201 60.28441688 58.95452664 66.88805866 65.54686642 C76.32258973 74.9651362 85.76552979 84.37479177 95.22031909 93.772726 C101.88749236 100.40117699 108.54503279 107.03920592 115.19551533 113.68440253 C119.16045961 117.64570057 123.12944461 121.6027378 127.10878944 125.5495739 C130.84873297 129.259392 134.57656262 132.98097108 138.29558754 136.71175575 C139.6581779 138.07456637 141.02501921 139.4331427 142.39649582 140.78701019 C157.52653854 155.73336399 157.52653854 155.73336399 159.62890625 166.1015625 C159.44256628 173.18248137 158.297145 178.49190023 153.3515625 183.75390625 C148.64888572 188.01506534 144.26363707 190.2755069 137.8125 190.4375 C136.95269531 190.47746094 136.09289062 190.51742187 135.20703125 190.55859375 C124.75551518 188.73817134 117.81093499 181.5098169 110.67529297 174.24291992 C109.58131125 173.14752514 108.48622201 172.05323552 107.39012146 170.95996094 C104.43942793 168.01069285 101.50432908 165.04634585 98.57193136 162.07890105 C95.49669217 158.97225231 92.40713936 155.87990334 89.31912231 152.78596497 C83.48342875 146.93477573 77.66059053 141.07096703 71.84234154 135.20243675 C65.21373428 128.51780266 58.57080109 121.84748282 51.92666793 115.17828596 C38.26852289 101.46797967 24.62833615 87.73993414 11 74 C10.99853479 75.0523702 10.99853479 75.0523702 10.99703997 76.1260004 C10.93877333 117.70343053 10.86498062 159.28080785 10.77101372 200.85817337 C10.7597455 205.84994736 10.74860705 210.84172163 10.73754883 215.83349609 C10.73534514 216.82727233 10.73314146 217.82104856 10.730871 218.84493923 C10.69549453 234.93794418 10.67063236 251.03094908 10.64965298 267.1239785 C10.62789373 283.63578946 10.5948421 300.14754994 10.55129844 316.65931797 C10.5247839 326.84870537 10.50708706 337.03802988 10.50065396 347.22745007 C10.49539949 354.2138504 10.47918047 361.20017155 10.45433434 368.18652946 C10.44032142 372.21783959 10.43114776 376.249008 10.43499184 380.28034401 C10.43840627 383.97309462 10.42801323 387.66554275 10.40676448 391.35823143 C10.39901647 393.32270769 10.4059327 395.28722502 10.41341704 397.25170231 C10.34982831 405.15881444 9.96186998 411.47777624 4.6875 417.75 C-1.51427746 422.94218578 -5.72955831 425.33969001 -13.84765625 425.21875 C-19.70103207 424.62385155 -24.84930808 422.15069192 -29 418 C-32.81217174 412.48780573 -34.12125149 407.92443252 -34.1386652 401.30722427 C-34.14413964 400.13928935 -34.14961409 398.97135443 -34.15525442 397.76802754 C-34.15623253 396.48399313 -34.15721064 395.19995871 -34.15821838 393.87701416 C-34.16278431 392.50000195 -34.16778438 391.12299113 -34.17318195 389.74598193 C-34.18676901 385.95829827 -34.19418306 382.17062359 -34.20060861 378.38292193 C-34.20861005 374.29978046 -34.22230871 370.21665769 -34.23532104 366.13352966 C-34.25708742 359.05797155 -34.27523133 351.98241155 -34.29092598 344.90683746 C-34.31362313 334.67670177 -34.34176618 324.44658679 -34.37124526 314.21646866 C-34.41892306 297.61941924 -34.46218674 281.02236135 -34.50268555 264.42529297 C-34.54203951 248.30126283 -34.5834655 232.17724022 -34.62768555 216.05322266 C-34.63040982 215.05960402 -34.63313409 214.06598539 -34.63594092 213.0422571 C-34.64962038 208.05764382 -34.66334066 203.07303065 -34.67708123 198.08841753 C-34.79104897 156.72562736 -34.89785767 115.36282096 -35 74 C-35.84426953 74.85118298 -35.84426953 74.85118298 -36.70559502 75.71956158 C-50.42249654 89.54704256 -64.15333585 103.36054126 -77.89968681 117.15874767 C-84.54707815 123.83188457 -91.18972758 130.5096149 -97.82128906 137.19848633 C-103.60357987 143.03072362 -109.39470325 148.85402076 -115.19645703 154.6668995 C-118.26614125 157.74308338 -121.33132139 160.8234637 -124.385952 163.91460228 C-127.26589201 166.8286793 -130.15756951 169.73058676 -133.05836296 172.62390137 C-134.11641029 173.68331535 -135.17023576 174.74696683 -136.21927452 175.8153019 C-142.89491398 182.60757659 -149.49082721 188.68012995 -159.1015625 190.62890625 C-166.18248137 190.44256628 -171.49190023 189.297145 -176.75390625 184.3515625 C-181.01506534 179.64888572 -183.2755069 175.26363707 -183.4375 168.8125 C-183.47746094 167.95269531 -183.51742187 167.09289062 -183.55859375 166.20703125 C-181.44768223 154.08774201 -172.01187662 146.31395372 -163.68212891 138.06689453 C-162.20403156 136.5852922 -160.72701407 135.10261189 -159.25099182 133.61894226 C-155.25616527 129.60991534 -151.24592799 125.61664465 -147.23225832 121.62649393 C-143.02738664 117.4417839 -138.83557001 113.24403242 -134.64193726 109.04806519 C-127.60093723 102.00711866 -120.55017203 94.97607181 -113.49316406 87.95117188 C-105.33948945 79.83441544 -97.19998557 71.70366418 -89.06823599 63.56494629 C-81.23560406 55.72600599 -73.39446698 47.89563101 -65.54893112 40.06960678 C-62.21404125 36.74288208 -58.88188936 33.4134502 -55.55186844 30.08185196 C-51.63048983 26.15959342 -47.70163115 22.24498171 -43.76690483 18.33611488 C-42.32562329 16.90198503 -40.88685944 15.46531974 -39.45083427 14.02592659 C-37.48763836 12.05900584 -35.51542524 10.10158629 -33.54067993 8.14627075 C-32.97694723 7.57721012 -32.41321452 7.00814949 -31.83239901 6.4218446 C-22.99856911 -2.26295796 -11.57528339 -6.67451158 0 0 Z " fill="#93D56C" transform="translate(268,45)"></path>
  </symbol>
  <symbol version="1.1" xmlns="http://www.w3.org/2000/svg" viewBox="0 0 512 512" id="down-arrow">
    <path d="M0 0 C6.24481374 3.6818381 9.65577419 8.54174588 11.625 15.4375 C11.87980902 18.60002601 11.87980902 18.60002601 11.88671303 22.06353569 C11.89070909 22.70697564 11.89470515 23.35041558 11.89882231 24.01335371 C11.90977779 26.16611604 11.90659801 28.31862053 11.9034729 30.47140503 C11.90847683 32.03163605 11.91435291 33.59186447 11.92102563 35.15208924 C11.93682788 39.43693976 11.94025644 43.72172471 11.94167423 48.00660086 C11.94536788 52.62823447 11.96052319 57.2498321 11.97428894 61.8714447 C11.99656669 69.87787372 12.01157688 77.88428995 12.02165604 85.89074326 C12.0362393 97.46673772 12.06177516 109.04268761 12.08998732 120.61865593 C12.1354617 139.39973018 12.17207385 158.18081084 12.203125 176.96191406 C12.23330789 195.20639167 12.26765697 213.45085358 12.30761719 231.6953125 C12.31130951 233.38209399 12.31130951 233.38209399 12.31507643 235.10295187 C12.32745098 240.74432308 12.33990752 246.3856941 12.35240483 252.02706504 C12.4559823 298.83052148 12.54518238 345.63399741 12.625 392.4375 C13.95471581 391.09446053 13.95471581 391.09446053 15.31129456 389.72428894 C23.67207293 381.28237844 32.04342777 372.85108423 40.42521763 364.43003368 C44.73390841 360.10047999 49.03880393 355.76728933 53.33520508 351.42553711 C57.48260364 347.23463633 61.63973382 343.05361932 65.80375481 338.87923622 C67.3896533 337.28595437 68.97203043 335.68915936 70.55078316 334.08879662 C72.76491405 331.84557543 74.99130539 329.61524122 77.22094727 327.38745117 C77.86903351 326.72498383 78.51711975 326.06251648 79.18484497 325.37997437 C84.212363 320.39737464 89.19530933 317.01225822 96.5625 317 C102.75958259 317.23473798 107.13212297 319.0380444 111.60546875 323.34375 C116.22417244 328.44813181 118.90873583 332.14190574 119 339.1875 C119.02835937 340.17234375 119.05671875 341.1571875 119.0859375 342.171875 C117.71254357 351.90202186 110.7056412 357.91864543 104.06079102 364.48754883 C102.97388716 365.57660148 101.8878505 366.66652018 100.8026123 367.75723267 C97.8674782 370.70201721 94.92006933 373.63422091 91.96995282 376.56398606 C88.87871703 379.63758936 85.79809564 382.72179848 82.71604919 385.80461121 C77.54202325 390.97676742 72.36032984 396.14113843 67.17358398 401.30053711 C61.18089536 407.26174528 55.19875411 413.23337215 49.22251946 419.21107274 C42.85103259 425.58391128 36.47195327 431.94910791 30.09061694 438.31208205 C28.25540653 440.14303446 26.42161727 441.97540002 24.58813667 443.80808449 C21.70609183 446.68811766 18.81899036 449.56298657 15.92792511 452.43396378 C14.86885011 453.4872071 13.81144836 454.54213607 12.7558651 455.59887886 C11.31298149 457.04274731 9.86331987 458.47983282 8.41334534 459.9165802 C7.60459741 460.72197644 6.79584948 461.52737268 5.96259403 462.35717487 C0.23796387 467.45176863 -5.02174394 468.93681783 -12.54639912 468.7489109 C-22.5775998 467.64453973 -29.53612689 459.98316911 -36.25317383 453.15869141 C-37.29965411 452.11407884 -38.34722227 451.07055517 -39.39578247 450.0280304 C-42.21888566 447.214838 -45.02627864 444.38644448 -47.83069444 441.55463839 C-50.77873023 438.58263388 -53.74028782 435.62415888 -56.70011902 432.66390991 C-61.66524868 427.6941638 -66.62080768 422.71503966 -71.57006836 417.72949219 C-77.28102148 411.97677791 -83.0039904 406.23625255 -88.73420888 400.50273192 C-94.85350603 394.37982733 -100.96513578 388.24931698 -107.07390761 382.11591291 C-108.82701924 380.35659226 -110.58140875 378.5985542 -112.33603859 376.84074783 C-115.09800478 374.0728534 -117.8546794 371.29978926 -120.60744095 368.52274132 C-121.61471491 367.50806812 -122.62364113 366.49503186 -123.63438606 365.48381615 C-138.4558752 350.64873463 -138.4558752 350.64873463 -138.6875 340.25 C-138.62031922 333.5393863 -137.58083797 328.86291591 -132.94921875 323.9140625 C-127.98966805 319.47994223 -123.48378042 318.14813173 -116.9375 318.125 C-115.84566406 318.10824219 -114.75382812 318.09148437 -113.62890625 318.07421875 C-107.39883658 318.76977275 -103.34682928 322.06252027 -98.87988281 326.2512207 C-98.36787952 326.73006619 -97.85587624 327.20891169 -97.3283577 327.70226765 C-90.85029496 333.80334769 -84.5750937 340.11282792 -78.296875 346.41796875 C-76.99145221 347.72526236 -75.68580421 349.03233111 -74.37994385 350.33918762 C-70.98468215 353.7382223 -67.59243712 357.14025143 -64.2008667 360.54296875 C-60.72301014 364.03115325 -57.24223268 367.51642051 -53.76171875 371.00195312 C-46.96332548 377.81099137 -40.16812371 384.62320479 -33.375 391.4375 C-33.37410437 390.25296287 -33.37410437 390.25296287 -33.37319064 389.0444957 C-33.33729566 342.23955641 -33.28065508 295.43468162 -33.19707905 248.62980194 C-33.18706161 243.00971197 -33.17721747 237.38962171 -33.16748047 231.76953125 C-33.16456841 230.0912451 -33.16456841 230.0912451 -33.16159752 228.37905417 C-33.13057758 210.2633724 -33.11359688 192.14770329 -33.10180578 174.03199996 C-33.0893942 155.44321154 -33.06189261 136.85448959 -33.02038693 118.26574314 C-32.99525179 106.79575943 -32.98188274 95.32588598 -32.98357043 83.85587434 C-32.98360019 75.9901449 -32.96897057 68.12452775 -32.94283572 60.25884207 C-32.92819009 55.72093589 -32.91998659 51.18326002 -32.92919731 46.64533424 C-32.93749396 42.48735052 -32.92730288 38.32982918 -32.90266338 34.17191397 C-32.89698712 32.67108323 -32.89798381 31.17020855 -32.90648755 29.66939117 C-32.95281382 20.72389283 -32.96964034 11.50987997 -26.62507415 4.50562108 C-19.41354021 -2.1954524 -9.14712387 -4.10651226 0 0 Z " fill="#D95849" transform="translate(266.375,22.5625)"></path>
  </symbol>
  
  <symbol version="1.1" xmlns="http://www.w3.org/2000/svg" viewBox="0 0 512 512" id="online">
    <path d="M0 0 C2.45736479 2.21651049 4.87408397 4.46271102 7.25195312 6.76416016 C8.30164551 7.77820646 9.35816918 8.78520947 10.41992188 9.78662109 C19.99041649 18.82032641 28.1051533 28.52829399 35.76171875 39.22265625 C36.20999023 39.84221191 36.65826172 40.46176758 37.12011719 41.10009766 C70.04826332 87.00258146 82.19618243 146.66661703 73.30957031 202.12402344 C65.56611971 245.9207592 46.26066224 285.69552336 15.23681641 317.70068359 C13.75908024 319.2253786 12.29777119 320.76475918 10.8359375 322.3046875 C4.22028487 329.18404327 -2.84555063 335.20940647 -10.49121094 340.91552734 C-12.16153674 342.16523728 -13.81325289 343.43663666 -15.46484375 344.7109375 C-60.60117957 378.87772237 -120.39743483 390.83587456 -175.7890625 383.2578125 C-220.65781447 376.42538649 -262.09492126 356.33890583 -294.67773438 324.73193359 C-296.26230345 323.19942326 -297.86669582 321.68973372 -299.47265625 320.1796875 C-308.0934877 311.95205982 -315.30110145 302.89485993 -322.23828125 293.22265625 C-322.69332031 292.59101563 -323.14835937 291.959375 -323.6171875 291.30859375 C-356.4694305 245.21738715 -368.69609202 185.92439434 -359.78613281 130.32128906 C-352.1588284 87.18147283 -333.28447325 47.33578751 -302.69677734 15.73242188 C-301.68273104 14.68272949 -300.67572803 13.62620582 -299.67431641 12.56445312 C-290.64194821 2.99537509 -280.93628164 -5.12798324 -270.23828125 -12.77734375 C-269.29299561 -13.45772705 -269.29299561 -13.45772705 -268.32861328 -14.15185547 C-189.14519769 -70.59714587 -77.48845748 -64.14287401 0 0 Z " fill="#00BA00" transform="translate(399.23828125,89.77734375)"></path>
  </symbol>
</svg>